<svg version="1.1" id="Layer_1" xmlns="http://www.w3.org/2000/svg" x="0" y="0" viewBox="0 0 160 34" xml:space="preserve"><style></style><path d="M92 32h2.9v-4l1.5-1.6 4 5.5h3.4l-5.5-7.5 5.3-5.5h-3.4l-5.3 5.7V19H92v13zm-9.9-6.4v-4h2.2c1.4 0 2.3.7 2.3 2 0 1.1-.8 2-2.3 2h-2.2zM79.3 32h2.9v-3.9h2.2c2.9 0 5.2-1.6 5.2-4.6 0-2.7-1.9-4.5-5-4.5h-5.3v13zm-11.1-5.4l1.7-4.2 1.7 4.2h-3.4zM63.1 32H66l1.2-2.9h5.5l1.2 2.9h3l-5.6-13.1h-2.6L63.1 32zm-13.2 0h2.9V21.6h5.1V32h2.9V19H49.9v13zm46-19.2c-2.3 0-3.9-1.9-3.9-4.1 0-2.3 1.6-4.1 3.9-4.1s3.9 1.9 3.9 4.1c0 2.3-1.6 4.1-3.9 4.1zm0 2.6c4 0 6.9-3 6.9-6.7S99.9 2 95.9 2 89 5 89 8.7s2.9 6.7 6.9 6.7zm-15.7-.2h2.9V4.9h4V2.2H76.3v2.6h4v10.4zm-15.8 0h9.9v-2.5h-7V9.9h6.1V7.4h-6.1V4.8h7V2.2h-9.8v13zm-12.8-13v2.7c0 7-.9 8-2.4 8h-.4l-.2 2.4c.4.1 1 .2 1.5.2 3 0 4.2-1.9 4.2-9.6v-1H58v10.4h2.9v-13h-9.3z" fill="#B0B0B0"/></svg>