<svg version="1.1" id="Layer_1" xmlns="http://www.w3.org/2000/svg" x="0" y="0" viewBox="0 0 160 34" xml:space="preserve"><style>.st2{fill-rule:evenodd;clip-rule:evenodd;fill:#B0B0B0}</style><path class="st2" d="M43.7 17.9l1.6-8.8c.8 0 2.1 5.3 3.4 4.3.7-.5 3.5-4.4 4-4.3.1.9-.6 3.5-.7 4.6-.2 1.2-.4 2.4-.6 3.5-.1.6-.2.7.4.8.6.1 1.5.1 2.1.2.9.1 1.2 0 1.3-1 .1-1.7.6-3 .8-4.6.2-1.5 1.2-7.9 1.6-9.3.3-1.1-.4-.9-1.2-.9-.8.1-1.4-.1-2.1-.1-.8 0-2 1.7-2.5 2.3-2.4 2.7-2.2 4.1-4.1-.1-.6-1.3-.8-2.3-2.3-2.2-1 .1-1 .1-2 0s-.9.8-1 1.5c-.1 1.2-.6 3.2-.8 4.5-.3 1.4-.5 3.2-.7 4.7-.2 1.1-.8 3.9-.8 4.7 0 .8 1.1.4 1.7.4.4-.1 1.6.1 1.9-.2M67.8 1.8c-2.1-.2-4.2.4-5.9 1.5-2 1.3-2.7 2.5-3.6 4.7-1.7 4.3-.6 9.6 4.7 10.3 10.2 1.3 14.3-15.4 4.8-16.5m-1.2 3.8c4.4.2 2.7 9.6-2.4 8.8-4.4-.7-3-9.1 2.4-8.8zM108.1 1.7c-4.5-.4-7.8 2.3-9.3 6.4-.6 1.6-1 5.2-.1 6.7 1.1 2 2.7 3.1 5 3.4 4.3.4 8.1-2.3 9.3-6.4.8-2.8 1.1-3.9.1-6.7-.8-2.3-2.7-3.2-5-3.4M107 5.5c4.6 0 2.9 9.5-2.1 8.8-4.5-.5-3.2-8.9 2.1-8.8zM98.5 2.1c-1 .1-2.1.1-3.1.1s-2.2.1-3.2.1c-.6 0-1.1-.1-1.7-.1-.5 0-1 .1-1.5.1-1.9-.1-1.3.5-1.7 2.2-.4 2.1.1 1.4 1.8 1.5 2.1.1 2-.6 1.7 1.6-.3 2.4-.7 4.8-1.1 7.2l-.3 1.8c-.3 1.2-.4 1.3.1 1.4.2 0 3.3.1 3.3 0 .3-.1.6-2.8.7-3.3.2-1.2.3-2.5.6-3.7.3-1.2.4-2.4.6-3.5.5-2.2.2-1.4 2.1-1.6 1.5-.1 2.1.7 2.4-1.2.1-1.2.9-2.7-.7-2.6"/><path class="st2" d="M78.7 2.1c-3.9-.2-3.2-.5-3.8 3.2-.4 2.3-.7 4.6-1.1 6.9-.2 1.2-.4 2.2-.6 3.4-.1 1.1-1.1 2.4.6 2.3 1.1-.1 2-.1 3.1 0 .9 0 2-.1 3-.1 3.7 0 3.3.9 3.8-3.1.2-1.2-1.4-.6-2.3-.6-5 .1-4.3.4-3.8-2.1.2-1.2.4-2.2.6-3.4.2-1.2.4-2.3.6-3.5.1-.6.1-1.2.3-1.8.1-.6.4-1.2-.4-1.2M38 32.1l2.3-.1c.2-.3.8-5 1-5.7.6.1 1.4 3.4 2.3 2.7.5-.4 2.2-2.7 2.6-2.8l-1 5.8c.4.1 1.9.3 2.2.2.4-.1.5-1.7.5-2.2.5-2.4.7-4.8 1.3-7.4.2-.9-1.1-.5-1.8-.6-1-.1-.9.2-1.5.9-.4.5-.8.9-1.2 1.4-.4.5-.8 1.3-1.2.4-.3-.6-.6-1.1-.8-1.6-.3-.7-.5-1.2-1.3-1.1-.6 0-1.8-.1-2 .4-.2 1.1-1.4 8.9-1.4 9.7M79 30.8c.5.3-.1 1.2 2 1l.4-2.5c-.9-.2-.9-.7-.6-1.5l.9-.1.3-2c-.9-.1-4.4.1-4.8-.2-.7-.4-.3-1.4.4-1.7 1.1-.5 1.3-.1 1.5.8h2.2c.7-4.2-4.9-3.5-6.3-1.6-.5.7-1 2.1-.6 3 .3.7.8.5.1 1-1.3.9-1.5 3.1-.9 4.1.6.9 1.9.9 2.9.9 1.4 0 1.6-.7 2.5-1.2m-.5-3c.1 1.7-2.1 2.5-2.6 1.6-.9-1.5 1.8-1.8 2.6-1.6zM108.2 25.4l-3 .1.5-3.8c-.3-.2-1 0-1.4-.1-1.5-.1-1-.1-1.6 3.6-.2 1.2-1 5.6-1 6.5h2.4l.6-3.8h3c.1.2-.5 3.3-.5 3.7.5.1 1.6.2 2.1.1s.5-1.6.6-2c.3-1.6.6-3.2.8-4.9.1-.7.3-1.7.4-2.4.3-1.2-.5-.7-1.5-.8-1.2-.1-.9.3-1.1 1.5.1.4 0 1.9-.3 2.3M49 32h6.8c.2-.2.4-1.9.5-2.3l-4.6-.2s.3-1.3.4-1.4h4.1l.3-2.3h-4l.3-1.3c.2-.1 2.3-.1 2.7-.1 1.8 0 1.4.3 1.8-1.4.3-1.6-.3-1-1.7-1-1 0-3.3.1-4.2 0-.8-.1-.7.1-.8.8-.4 1.2-1.7 8.8-1.6 9.2M63.6 30.4l.3 1.6c.1 0 2.1.1 2.3 0 .4-.2 0-1.6-.1-2-.3-1.3-.6-2.7-.9-4-.1-.6-.6-3.8-1-4-.2-.1-2-.1-2.3 0-.4.1-.9 1.3-1.1 1.7-1.3 2.4-2.7 4.9-4.1 7.4-.7 1.3.1.9.9.9 1.2 0 1.1.3 1.7-1 .4-1 .7-.7 1.8-.7.9-.1 1.7-.1 2.5.1m-.7-2.6c-.2.1-1.9.3-1.8-.2 0-.2.7-1.4.8-1.7 1.2-2.4 1.1 1.7 1 1.9z"/><path class="st2" d="M98.8 21.4c-1.9 0-3.7 1-4.2 3-.2 1.1-.3 2 .7 2.7 1.3 1 1.7.5 3 .9 1 .3.7 1.5-.8 1.6-1.7.2-2.2-1-2.6-.9-.1 0-1.7 1.4-1.3 1.9.5.7 1.5 1.4 2.4 1.4 5.2.5 7.7-5 3.2-6.5-.6-.2-3.1-.3-1.8-1.5.8-.8 2.3.1 2.9.2.4.1 1.7-1.5 1.4-1.9-.5-.5-2.3-.9-2.9-.9M82.1 31.8h2.3l.7-3.5H89l.3-2.4-3.8.1c-.1-.2.2-1.6.3-1.9h4.1c.2-.2.5-2.1.4-2.3-.2-.2-1.8-.1-2.2-.1-.5 0-4.2-.1-4.3.2-.2.3-1.7 9.4-1.7 9.9M66.3 24.1c.3.1 2.3.1 2.4.1l-1.2 7.6 2.4.1 1.3-7.7c.2-.1 2.1 0 2.5-.1.2-.3.3-1.1.4-1.5.2-.7.2-1-.6-.9l-5.9.1c-.6 0-1-.2-1.1.6-.1.4-.3 1.5-.2 1.7M89.8 31.7l2.3.1c.3-.8 1.2-6.8 1.5-8.5.3-1.5.7-1.8-.9-1.7-1.6.1-1.3-.3-1.6 1.4-.3 2-1.3 7.4-1.3 8.7M80.1 9.1c.5 0 .9-.1 1.3-.1.6-.1.7 0 1-.4 1.1-1.6 2.9-4.8 3.5-6.5-.8 0-1.7.1-2.5.2-.9 0-.5-.2-1.3 2-.7 1.9-1.4 3.3-2 4.8"/></svg>