<svg version="1.1" id="Layer_1" xmlns="http://www.w3.org/2000/svg" x="0" y="0" viewBox="0 0 160 34" xml:space="preserve"><style>.st1{fill:#B0B0B0}</style><path class="st1" d="M11.7 32.8V1.5h14.5L32.3 8l6.1-6.5h14.5v31.3H38V17.1l-5.6 6-5.6-6v15.7H11.7zM81.1 15.3V1.5H111v13.8h-7.5v17.4H88.6V15.3h-7.5z"/><path class="st1" d="M135.9 14.9h8.5c-2.1 3.1-4.4 5.7-6.9 8l10.4 9.9h-15.2l-3.4-3.2c-1.7 1.2-3.5 2.1-5.6 2.7-2.1.6-4.1 1-6.1 1-3 0-5.4-.7-7.1-2.1-1.8-1.4-2.6-3.2-2.6-5.3 0-3.9 2.8-6.9 8.3-9.1-2.3-2.2-3.4-4.4-3.4-6.7 0-2.6 1.1-4.8 3.3-6.5 2.2-1.7 5-2.6 8.3-2.6 3 0 5.4.7 7.3 2.1s2.8 3.2 2.8 5.4c0 2.7-1.6 5.1-4.7 7.2l3.2 3c1.2-1 2.1-2.2 2.9-3.8zm-10.8 10.6l-3.7-3.4c-.8.4-1.3.8-1.7 1.2-.3.4-.5.8-.5 1.4 0 .6.2 1.1.7 1.6.5.4 1.1.6 1.9.6 1-.1 2.1-.5 3.3-1.4zm1.6-12.5c2-.5 2.9-1.5 2.9-2.9 0-.6-.2-1.1-.7-1.5s-1.1-.6-1.8-.6-1.3.2-1.8.6c-.5.4-.7.9-.7 1.5 0 .9.7 1.9 2.1 2.9zM66 12.2v3.6H54.3V1.6H66v3.6h-5.5V7h3.8v3.6h-3.8v1.7l5.5-.1zM79.7 12.2v3.6H67.9V1.6h11.8v3.6h-5.5V7H78v3.6h-3.8v1.7l5.5-.1zM66 29.2v3.6H54.3V18.6H66v3.6h-5.5V24h3.8v3.6h-3.8v1.7l5.5-.1z"/><g><path class="st1" d="M73.9 32.8h-6.3l4.9-14.2h8.9l4.9 14.2H80l-.8-2.4h-4.6l-.7 2.4zm1.9-5.8h2.3L77 23.5 75.8 27z"/></g></svg>