<svg version="1.1" id="Layer_1" xmlns="http://www.w3.org/2000/svg" x="0" y="0" viewBox="0 0 160 34" xml:space="preserve"><style>.st1{fill:#B0B0B0}</style><path class="st1" d="M143.5 6.6c.7 0 1.1.2 1.5.4.5.2.7.7.7 1.2 0 3.7-.1 7.4-.2 8.5-.1.8-.3 1.1-.8 1.2-.3.1-.7.2-1.1.2-.1.1-.1.6 0 .6.6 0 1.4-.1 2.6-.1 1.1 0 2 .1 2.6.1.1-.1.1-.6 0-.6-.5-.1-.9-.1-1.2-.2-.6-.1-.9-.4-.9-1.3 0-1-.1-5.6 0-7.8 0 0 0-.1.1 0 1.3 1.6 6.5 8.3 7.7 9.9h1.7v-2.9c0-3.3 0-6.2.2-8 0-.7.2-1 .8-1.2.3-.1.5-.1.8-.2.1-.1.1-.6 0-.6-.3 0-1.4.1-2.3.1-1.3 0-2.2-.1-2.8-.1-.1 0-.1.6 0 .6.5 0 .9.1 1.3.2.6.2.8.5.9 1.1.1 1.4.1 4.8.1 7.5h-.1c-1.1-1.4-4.9-6-6.7-8.4-.5-.6-.7-.9-.8-1.1h-1.2c-1.1 0-2.2-.1-2.8-.1-.2.5-.2 1-.1 1zM132 6.6c.5.1.8.1 1.1.2.5.2.6.3.6 1v9c0 .7-.2.9-.6 1.1-.3.1-.9.2-1.6.2-.1.1 0 .5 0 .6 1 0 2.3-.1 3.5-.1 2.2 0 3.9.1 5.7.1 1 0 1.1-.1 1.2-.3.3-.6.8-2.4.9-2.9-.1-.1-.6-.3-.7-.3-.3.7-.7 1.4-1.1 1.9-.4.5-.7.6-1.6.6-1 0-2.4 0-2.9-.2-.2-.1-.5-.4-.5-.7v-3.9l.1-.2h2.9c.5.1.6.3.7.6.1.3.1.3.2.9.1.1.6 0 .8 0v-2c0-.7.1-1.5.1-2-.1-.1-.6-.1-.8 0-.1.3-.1.6-.2.8-.1.4-.3.6-.8.7-.7.1-2.2.1-2.9 0-.1 0-.1-.1-.1-.2V7.3c0-.1.1-.3.3-.4h3c.5 0 .8.2.9.7.2.3.2.7.3 1.4.1.1.6 0 .7 0 0-1 .2-2.4.3-3 0 0 0-.1-.1-.1-.6.1-1.7.1-2.5.1h-4.1c-1.1 0-2.3-.1-2.9-.1 0 .2-.1.6.1.7zM121.1 16.7v-4.5-5.1c0-.1.1-.3.2-.3.2-.1.5-.1.9-.1 1.2 0 2.4.2 3.2.8 1.5 1 2.2 2.9 2.2 4.9 0 2.2-.6 3.5-1.4 4.5-.9.9-1.8 1.1-2.7 1.1-.7 0-1.6-.1-2.1-.5-.2-.2-.3-.5-.3-.8zm-4.2-10.1c.4 0 .8.1 1.1.2.5.1.6.3.7 1 .1.9.1 2.6.1 4.3 0 2.1 0 3.9-.1 4.8-.1.7-.3.9-.7 1-.3.1-.7.2-1.3.2-.1 0-.1.5 0 .6h.9c1.9 0 3.5.1 4.8.1 2.2 0 3.9-.4 5.4-1.6 1.3-1 2.4-2.6 2.4-5.2 0-1.9-.7-3.6-2-4.7-1.2-.9-2.7-1.3-4.5-1.3-1.8 0-2.6.1-4 .1-.6 0-2.4-.1-2.8-.1-.1.1-.1.5 0 .6z"/><path class="st1" d="M108.6 6.8c1.9 0 2.9 1.2 2.9 3 0 1.3-.5 2-1.2 2.3-.4.2-1.3.2-2.5.2-.1 0-.1 0-.1-.1v-5c0-.1.1-.3.1-.3.3-.1.6-.1.8-.1zm-4.9-.2c.4 0 .8.1 1.1.2.5.1.6.4.6 1v9.1c0 .7-.2 1-.7 1.1-.3.1-.6.1-1 .2-.1.1-.1.6 0 .6.4 0 1.3-.1 2.8-.1 1.5 0 2.5.1 2.9.1.1-.1.1-.6 0-.6-.5-.1-.8-.1-1.1-.2-.5-.1-.6-.3-.6-1v-3.6s0-.1.1-.1h1c.2 0 .4.1.6.3.7 1.1 1.9 3 2.7 4 .2.3.6.7 1 .9.8.4 2.7.4 3.7.4.1 0 .2-.6.1-.6-1.2-.2-1.4-.2-2.2-1-1-1-2.8-3.5-3.3-4.5v-.1c1.3-.6 2.4-1.6 2.4-3.3 0-1.8-1.3-3.2-3.8-3.2-1 0-2.1.1-3.6.1-.7 0-2.1-.1-2.6-.1-.1-.2-.1.3-.1.4zM96 8.6c.4 1 1.1 3.2 1.4 4.2 0 .1 0 .2-.1.2h-2.8c-.1 0-.1 0-.1-.2.4-1 1-3.1 1.4-4.2h.2zm-6.3 9.5c-.1.1-.1.6 0 .6.5 0 1.3-.1 2.3-.1 1.2 0 2.1.1 2.6.1.1-.1.1-.6.1-.6-.4 0-.7-.1-1-.2-.7-.1-.7-.4-.7-.7 0-.4.6-1.9.9-3 0-.1.1-.2.2-.2h3.5c.1 0 .2.1.2.1.3.8.9 2.5 1.1 3.2.1.2.1.4-.2.5-.2.1-.6.2-1.1.2-.1.1-.1.5 0 .6.6 0 1.6-.1 2.9-.1 1.2 0 2.2.1 2.8.1.1-.1.1-.6.1-.6-1.5-.2-1.6-.3-2.3-1.9-.7-1.8-2.7-7.5-3.3-9.1-.1-.4-.2-.8-.3-1.1h-1.8c0 .3-.2.9-.4 1.3-.5 1.4-2.3 6.4-3.4 9-.5 1.6-.8 1.7-2.2 1.9zM88.3 17.8c-.4-.2-.5-.3-.5-.5v-2.2c0-.8.1-1 .5-1.1.2-.1.4-.1.6-.2.1-.1.1-.6 0-.7-.4 0-1.1.1-2.4.1-1.4 0-2.6-.1-3.2-.1-.1.1-.1.6 0 .7.6.1 1 .1 1.4.2.6.2.7.5.8 1.1v2.1c0 .3-.2.6-.4.8-.2.2-.7.2-1.1.2-3.3 0-5.1-2.7-5.1-6.2 0-3.8 1.7-5.5 4.4-5.5 1.2 0 2.1.2 2.8.7.6.4.8 1 1 2.5.1.1.7 0 .7-.1 0-1 .2-2.7.3-3.5-1.1-.1-2.4-.4-4.2-.4-1.7 0-3 .2-4.1.8-2.3 1-3.7 3.1-3.7 5.8 0 4.5 2.7 6.8 7.4 6.8 1.9 0 3.9-.6 4.7-.8.1-.1.1-.4.1-.5zM58.4 6.6c.5.1.8.1 1.1.2.5.2.6.3.6 1v9c0 .7-.2.9-.6 1.1-.3.1-.9.2-1.6.2-.1.1 0 .5 0 .6 1 0 2.3-.1 3.5-.1 2.2 0 3.9.1 5.7.1 1 0 1.1-.1 1.2-.3.3-.6.8-2.4.9-2.9-.1-.1-.6-.3-.7-.3-.3.7-.7 1.4-1.1 1.9-.4.5-.7.6-1.6.6-1 0-2.4 0-2.9-.2-.2-.1-.5-.4-.5-.7v-3.9l.1-.2h2.9c.5.1.6.3.7.6.1.3.1.3.2.9.1.1.6 0 .8 0v-2c0-.7.1-1.5.1-2-.1-.1-.6-.1-.8 0-.1.3-.1.6-.2.8-.1.4-.3.6-.8.7-.7.1-2.2.1-2.9 0-.1 0-.1-.1-.1-.2V7.3c0-.1.1-.3.3-.4h3c.5 0 .8.2.9.7.2.4.3.8.4 1.5.1.1.6 0 .7 0 0-1 .2-2.4.3-3 0-.1 0-.1-.1-.1-.6.1-1.7.1-2.5.1h-4.1c-1.1 0-2.3-.1-2.9-.1-.1.1-.2.5 0 .6zM54.1 18.1c-.7-.1-1.1-.1-1.4-.2-.5-.1-.6-.5-.6-1.1V7.1c0-.1 0-.1.1-.2h2.6c.4 0 .6.2.8.6.2.5.3 1.1.3 1.9.1.1.7.1.7 0 .1-1.2.3-2.8.5-3.6 0 0-.1-.2-.2-.2-.6.4-1.1.4-2.2.4h-7.5c-.6 0-1.3-.1-1.8-.3-.1 0-.2 0-.2.1-.1.9-.3 2.6-.4 3.5 0 .1.6.2.7.2.2-.8.5-1.4.8-1.9.2-.4.5-.6.9-.6h2.4s.1.1.1.2v9.4c0 .9-.2 1.3-.8 1.4-.3.1-.8.2-1.4.2-.1.1-.1.5 0 .6.6 0 1.7-.1 3.4-.1 1.3 0 2.5.1 3.2.1 0-.1.1-.6 0-.7zM37.8 6.6c.6 0 .8.1 1.2.2.4.1.5.4.5.9.1 1 .1 2.2.1 4.1V17c-.1.6-.2.9-.7 1-.2.1-.6.1-1 .2-.1.1-.1.6 0 .6.7 0 1.6-.1 3.1-.1 1.2 0 2.2 0 2.9.1.1-.1.1-.6.1-.6-.5-.1-.9-.2-1.2-.2-.6-.1-.7-.5-.7-1.1v-4.8-4.2c0-.6.1-.9.6-1.1.3-.1.6-.1 1.1-.2.1-.1.1-.6 0-.6h-5.9c-.1.1-.1.5-.1.6zM22.2 6.6c.5 0 .8.1 1.2.2.4.1.5.3.6 1v8.7c-.1.9-.2 1.3-.7 1.4-.3.1-.6.1-1.1.2-.1.1-.1.6 0 .6.4 0 1.5-.1 2.9-.1 1.6 0 2.6.1 3 .1.1-.1.2-.6.1-.6-.5-.1-.9-.2-1.2-.2-.5-.2-.6-.5-.6-1.1V13v-.1h6.1c.1 0 .1.1.1.2v4c0 .6-.2.9-.5 1-.3.1-.6.2-1.1.2-.1.1-.1.6 0 .6.5 0 1.7-.1 2.9-.1 1.3 0 2.3.1 2.9.1.1-.1.1-.6.1-.6-.7-.1-1-.2-1.3-.2-.4-.2-.5-.4-.5-1v-4.4-4.6c0-.7.1-.9.6-1 .3-.1.6-.2 1-.2.1-.1.1-.6 0-.6-.7-.3-1.7-.2-3-.2S31.5 6 30.9 6c-.1.1-.1.6 0 .7.5 0 .9.1 1.2.2.3.1.4.4.4.7v4l-.1.2h-5.9c-.1 0-.1-.1-.1-.2V7.9c0-.6.1-.9.5-1 .2-.1.6-.2 1-.2.1-.1.1-.6 0-.6-.6 0-1.3.1-2.8.1-1.4 0-2.3-.1-2.8-.1-.2 0-.2.5-.1.5z"/><path class="st1" d="M2.7 6.6c.5 0 .7.1 1.1.2.5.2.8.6 1 1.3.7 2 2.5 8.1 3.1 10.7.3-.1 1 0 1.3 0 .6-2 2.2-6.3 3.1-8.7h.1c.7 1.7 2.6 7.1 3.1 8.8h1.3c.8-2.6 2.6-8.2 3.5-10.7.3-.8.6-1.1 1.1-1.3.2-.1.5-.2.9-.2.1-.1.1-.6 0-.6-.5-.1-1.1-.1-2.5-.1-1 0-2-.1-2.5-.1-.1 0-.1.6 0 .6.6.1 1 .1 1.3.2.6.2.6.6.5 1.3-.3 1.4-1.5 5.4-2.1 7.2h-.1c-.6-1.5-2.6-7-3.2-8.8h-1.3c-.5 1.9-2 6.3-2.9 8.5 0 0-.1.1-.1 0-.6-2-1.7-5.6-2.2-7.6 0-.1 0-.3.3-.4.2-.1.5-.2 1-.2.1-.2.1-.7 0-.7H2.8c-.1 0-.1.6-.1.6zM98.9 26.2h-1.3l.4-1.6-.1-.1-.7.7-.3 1h-.6l-.3.4v.1h.8l-.6 2.9c-.2 1.1 0 1.4.2 1.4.6 0 1.4-.7 1.7-1.1l-.2-.3c-.3.3-.8.7-1 .7-.1 0-.2-.1-.1-.6l.6-3 1.1-.1.4-.4zm-4 3.5c-.3.3-.6.5-.7.5-.1 0-.1-.1 0-.4.2-.8.4-1.6.6-2.3.1-.4.1-.7.1-.9 0-.5-.2-.6-.4-.6s-.4.1-.7.2c-.4.2-1.3.8-2 1.9l.2-.9c.1-.4.1-.7.1-.9 0-.2-.1-.3-.2-.3-.3 0-.9.4-1.5 1l.2.3c.3-.3.6-.5.7-.5.1 0 .1.1 0 .4-.3 1.2-.6 2.5-.9 3.7l.1.1c.2-.1.5-.2.7-.2.1-.6.3-1.3.4-1.8.6-1 1.9-2.3 2.4-2.3.1 0 .2.1.2.2s0 .3-.1.5l-.6 2.4c-.1.3-.1.5-.1.7 0 .3.1.4.3.4.3 0 .9-.3 1.5-1l-.3-.2zm-8.8.6c-.2 0-.3-.2-.3-.7 0-1.1.4-2.3 1.2-2.9.2-.1.5-.2.8-.2.3 0 .6.1.7.2-.1.4-.2 1.1-.3 1.5-.3.7-1.6 2.1-2.1 2.1zm3.3-.7c-.3.3-.7.6-.8.6-.1 0-.1-.1 0-.5.2-1.3.6-2.8.7-3.5-.1 0-.3 0-.4-.1-.2 0-.5-.1-.7-.1-.6 0-1.4.3-1.9.8-.8.7-1.3 1.9-1.3 3 0 .9.3 1.2.6 1.2s.6-.2 1-.5c.5-.4 1-.9 1.4-1.5l-.2 1c-.2.8 0 .9.2.9.3 0 1-.4 1.5-1.1l-.1-.2zm-6.5-1.8l.1-.5c.1-.3.1-.6.1-.8 0-.3-.1-.5-.2-.5-.3 0-.9.4-1.5 1l.2.3c.4-.3.7-.6.8-.6.1 0 .1.1 0 .5-.2 1.2-.5 2.5-.8 3.6l.1.1c.2-.1.5-.2.7-.2.2-.8.3-1.4.4-2.1.2-.5.6-1 .8-1.3.3-.3.4-.5.6-.5.1 0 .2.1.4.2.1.1.1.1.2 0l.3-.3c0-.1.1-.2.1-.2v-.2c-.1-.2-.3-.3-.5-.3-.6 0-1.3.8-1.8 1.8zm-2.4 1.9c-.3.3-.7.6-.8.6-.1 0-.1-.1 0-.4.3-1.4.6-2.6.9-3.8h-.1l-.7.3c-.2.7-.3 1.2-.4 1.7-.5.8-1.7 2.3-2.3 2.3-.1 0-.2-.1-.2-.3v-.4c.2-.9.4-1.7.6-2.6.1-.3.1-.5.1-.6 0-.2-.1-.3-.2-.3-.3 0-.9.4-1.6 1l.1.3c.4-.4.7-.5.8-.5.1 0 .1.1 0 .3-.2.8-.4 1.7-.6 2.6-.1.3-.1.5-.1.7 0 .5.2.6.5.6s.6-.1.9-.4c.6-.4 1.2-1.1 1.7-1.7-.1.4-.1.5-.2.9-.1.3-.1.6-.1.8 0 .3.1.4.3.4.3 0 1.1-.5 1.5-1.1l-.1-.4zm-8.9.6c-.2 0-.3-.2-.3-.7 0-1.1.4-2.3 1.2-2.9.2-.1.5-.2.8-.2.3 0 .6.1.7.2-.1.4-.2 1.1-.3 1.5-.3.7-1.6 2.1-2.1 2.1zm3.3-.7c-.3.3-.7.6-.8.6-.1 0-.1-.1 0-.5.2-1.3.6-2.8.7-3.5-.1 0-.3 0-.4-.1-.2 0-.5-.1-.7-.1-.6 0-1.4.3-1.9.8-.8.7-1.3 1.9-1.3 3 0 .9.3 1.2.6 1.2s.6-.2 1-.5c.5-.4 1-.9 1.4-1.5l-.2 1c-.2.8 0 .9.2.9.3 0 1-.4 1.5-1.1l-.1-.2zm-4.5-3.4h-1.3l.4-1.6-.1-.1-.7.7-.3 1h-.6l-.3.3v.1h.8l-.6 2.9c-.2 1.1 0 1.4.2 1.4.6 0 1.4-.7 1.7-1.1l-.2-.3c-.3.3-.8.7-1 .7-.1 0-.2-.1-.1-.6l.6-3 1.1-.1.4-.3zm-6 4.8c.9 0 1.9-.8 1.9-1.6 0-.5-.2-.8-.9-1.3-.4-.3-.7-.6-.7-.9 0-.4.3-.6.6-.6s.6.2.8.5c.1.1.1.1.2 0 .2-.1.3-.3.3-.4 0-.3-.4-.6-.8-.6-.3 0-.9.2-1.2.5-.4.4-.5.7-.5 1 0 .5.4.9.9 1.3s.6.7.6.9c0 .3-.3.7-.8.7-.4 0-.8-.2-1-.6-.1-.1-.1-.1-.3 0-.2.1-.3.3-.3.4.2.3.7.7 1.2.7zm-2.6-4.5c.3 0 .6.2.6.6 0 .5-.5 1-2.1 1.4.2-1.2.7-1.7 1-1.8.2-.1.4-.2.5-.2zm.9 3c-.5.5-1.1.8-1.6.8-.7 0-.8-.6-.8-1.2v-.3c1-.3 2.9-.8 2.9-1.9 0-.5-.4-.9-.9-.9s-1 .2-1.5.6c-.8.6-1.3 1.8-1.3 2.8 0 1.3.7 1.6 1.2 1.6s1.3-.2 2.2-1.2l-.2-.3zm-7.8-2l.5-2.7c.1-.3.1-.4.2-.5.1-.1.3-.1.5-.1.9 0 1.3.5 1.3 1.4 0 .7-.3 1.2-.8 1.6-.3.2-.7.3-1.2.3h-.5zm3.9 3.2c-.3-.1-.5-.2-.8-.5-.2-.3-.4-.6-.7-1.1-.2-.5-.5-1.1-.6-1.4.9-.3 1.7-1 1.7-2.1 0-.6-.3-1.1-.6-1.3-.4-.3-.9-.3-1.5-.3H54l-.1.3c.9.1.9.1.7 1l-.8 4.3c-.2.9-.2 1-1.1 1.1l-.1.3h2.7l.1-.3c-.9-.1-.9-.1-.8-1.1l.3-1.7h.5c.4 0 .5.1.7.5.2.5.5 1.1.8 1.6.4.7.8 1 1.7 1h.1l.1-.3z"/></svg>