<svg version="1.1" id="Layer_1" xmlns="http://www.w3.org/2000/svg" x="0" y="0" viewBox="0 0 160 34" xml:space="preserve"><style>.st1{fill:#B0B0B0}.st4{fill:#fff}</style><path class="st1" d="M123.9 10.4v15.7h-2V12.8h-.1c-.4.7-.8 1.4-1.2 2-2.1 3.6-4.2 7.2-6.2 10.8-.2.3-.4.5-.8.5h-2.1V10.4h2.1v13.2h.1c.4-.8.9-1.5 1.3-2.3 2-3.5 4.1-7.1 6.1-10.6.2-.3.3-.4.7-.4.7.2 1.4.1 2.1.1zM36.8 10.1c1.8 0 3.5.5 4.9 1.7 1.4 1.1 2.1 2.7 2.4 4.4.4 2 .3 3.9-.5 5.8-1 2.6-2.9 4.2-5.7 4.6-2 .3-3.9 0-5.6-1.2-1.7-1.2-2.6-3-3-5.1-.3-1.7-.3-3.3.2-4.9.9-2.9 2.8-4.6 5.9-5.1.2 0 .4-.1.6-.1.4-.1.6-.1.8-.1zm0 14.7c2.4.1 4.2-1.4 5-3.4.6-1.7.7-3.5.2-5.3-.6-2.3-2-3.8-4.4-4.1-2.2-.3-4.3.5-5.3 2.6-1.2 2.3-1.2 4.7-.2 7.1.8 2 2.4 3 4.7 3.1zM95.2 18.2c-.1 2.1-.5 4.2-1.9 5.9-1.1 1.4-2.6 2.2-4.4 2.4-1.3.2-2.6.1-3.9-.3-1.9-.6-3.3-1.8-4.1-3.6-1.2-2.8-1.3-5.6-.1-8.4 1-2.3 2.9-3.6 5.4-4 1.6-.2 3.1-.1 4.6.5 2.2 1 3.4 2.7 4 5 .3.8.3 1.7.4 2.5zm-7.6 6.6c2.2.1 4.1-1.3 4.9-3.3.6-1.5.7-3.1.5-4.8-.4-2.5-2-4.5-4.6-4.8-2.1-.2-4.1.5-5.2 2.4-1.2 2.1-1.3 4.4-.6 6.7.7 2.4 2.6 3.8 5 3.8zM2 10.5h12.4v15.3c0 .4-.1.5-.5.5h-1.6V12.4H4v13.9H2V10.5zM96.7 10.5h2V17h8.3v-6.5h2.1v15.7h-1.9c-.1 0-.1-.2-.2-.3v-2.6-4.4h-8.3v7.3h-2V10.5zM139.6 15.8h-2c-.1-.4-.2-.7-.3-1.1-.7-1.8-2-2.7-3.9-2.8-2.9-.2-4.8 1.7-5.4 4-.5 2.1-.5 4.2.5 6.2.8 1.7 2.3 2.6 4.2 2.7 1.1.1 2.2-.1 3.1-.8 1.1-.8 1.6-1.9 1.8-3.2v-.2c0-.1 0-.2.1-.3h2c-.1 1.2-.4 2.3-1 3.3-1 1.7-2.6 2.7-4.6 2.9-1.7.2-3.4.1-4.9-.8-1.8-1-2.8-2.6-3.3-4.5-.6-2.4-.5-4.7.5-7 1.1-2.4 3-3.7 5.6-4 2.3-.3 4.4.3 6.1 2 1 .9 1.5 2.1 1.5 3.6zM54.6 26.2c.4-.9.7-1.7 1-2.5 1.7-4.3 3.4-8.6 5-12.8.1-.3.3-.4.6-.4h1.6c.3 0 .4.1.5.3 1.2 3.2 2.5 6.4 3.7 9.6.7 1.8 1.4 3.7 2.1 5.5 0 .1.1.2.1.4h-2.1c-.1 0-.2-.1-.2-.3l-1.5-4.2c-.1-.3-.2-.4-.5-.3H59c-.3 0-.4.1-.5.4-.5 1.4-1 2.7-1.5 4.1-.1.3-.2.4-.5.4-.7-.2-1.3-.2-1.9-.2zm7.3-13.6c-1 2.4-1.9 4.7-2.8 7.1h5.4c-.8-2.4-1.7-4.8-2.6-7.1zM18.8 18.8v7c0 .3-.1.4-.4.4h-1.6V10.5h6.5c.9 0 1.9.1 2.8.4 1.5.4 2.4 1.6 2.4 3.2 0 .8 0 1.6-.2 2.3-.4 1.4-1.5 2.1-2.9 2.4-.7.1-1.4.2-2.1.2-1.5-.2-2.9-.2-4.5-.2zm.1-1.8c.1 0 .1.1.1.1 1.8 0 3.7 0 5.5-.1 1.1-.1 1.8-.7 1.9-1.8.2-1.6-.3-2.9-2.3-2.9-1.6 0-3.2 0-4.8-.1h-.4V17zM144.8 12.3h-5.3v-1.8h12.6v1.8h-5.3v13.5c0 .4-.1.5-.5.5h-1.2c-.3 0-.4-.1-.4-.4v-8.8c.1-1.7.1-3.3.1-4.8zM49.3 12.3H44v-1.8h12.6v1.8h-5.2v13.9h-2.1V12.3zM72.2 12.2v13.3c0 .8.1.7-.7.7h-1.1c-.3 0-.3-.1-.3-.3v-3.6-11.2c0-.7 0-.7.7-.7h9.7v1.8h-8.3zM156.5 10.5c1.5 0 2.5 1.1 2.5 2.5 0 1.3-1 2.5-2.5 2.5-1.6 0-2.5-1.1-2.5-2.6-.1-1.3 1.1-2.4 2.5-2.4zM159 23.7c0 1.4-1.1 2.5-2.5 2.5s-2.6-1.1-2.6-2.5 1.1-2.5 2.6-2.5c1.4 0 2.5 1.1 2.5 2.5z"/><path class="st4" d="M36.8 24.8c-2.3 0-3.9-1.1-4.8-3.1-1-2.4-.9-4.8.2-7.1 1.1-2.1 3.2-2.9 5.3-2.6 2.4.3 3.8 1.8 4.4 4.1.5 1.8.4 3.6-.2 5.3-.7 2-2.5 3.4-4.9 3.4zM87.6 24.8c-2.4 0-4.3-1.4-5-3.7-.7-2.3-.6-4.6.6-6.7 1.1-1.9 3.1-2.7 5.2-2.4 2.6.3 4.2 2.3 4.6 4.8.3 1.6.2 3.2-.5 4.8-.8 1.9-2.6 3.2-4.9 3.2zM61.9 12.6c.9 2.4 1.7 4.7 2.6 7.1h-5.4c1-2.4 1.9-4.8 2.8-7.1zM18.9 17v-4.8h.4c1.6 0 3.2 0 4.8.1 2.1 0 2.5 1.3 2.3 2.9-.1 1.1-.7 1.8-1.9 1.8-1.8.1-3.7.1-5.5.1-.1 0-.1 0-.1-.1z"/></svg>