<svg version="1.1" id="Layer_1" xmlns="http://www.w3.org/2000/svg" xmlns:xlink="http://www.w3.org/1999/xlink" x="0" y="0" viewBox="0 0 160 34" xml:space="preserve"><style>.st1{fill:#B0B0B0}</style><defs><path id="SVGID_1_" d="M2 4.7h156v24.8H2z"/></defs><clipPath id="SVGID_2_"><use xlink:href="#SVGID_1_" overflow="visible"/></clipPath><g clip-path="url(#SVGID_2_)"><path class="st1" d="M16.3 20.2c0-3.2-2.1-5.3-4.9-5.3-.7 0-1.4.1-2 .4-.6.3-1.2.6-1.7 1.1-.5.5-.9 1.1-1.1 1.7-.3.6-.4 1.3-.4 2s.1 1.4.4 2c.3.6.6 1.2 1.1 1.7.5.5 1.1.9 1.7 1.1.6.3 1.3.4 2 .4 2.9.2 4.9-1.8 4.9-5.1zm4.5 0c0 5.5-4.1 9.3-8.5 9.3-2.1.1-4.1-.6-5.7-1.9V29H2V4.7h4.6v8.2c1.6-1.3 3.6-2 5.7-1.9 4.4-.1 8.5 3.7 8.5 9.2M36.7 20.2c0-.7-.1-1.4-.4-2-.2-.6-.6-1.2-1.1-1.7-.5-.5-1-.9-1.7-1.1-.6-.3-1.3-.4-2-.4-2.9 0-5 2-5 5.3 0 3.2 2.1 5.2 5 5.2.7 0 1.3-.1 2-.4.6-.3 1.2-.7 1.7-1.1.5-.5.8-1.1 1.1-1.7.3-.7.4-1.4.4-2.1zM41 29h-4.6v-1.4c-1.6 1.3-3.7 2-5.7 1.9-4.4 0-8.5-3.8-8.5-9.3 0-5.5 4.1-9.3 8.5-9.3 2.1-.1 4.1.6 5.7 1.9v-1.4H41V29zM56.7 11.4l-.2 4.5h-1c-4.2 0-6.2 2.6-6.2 7.5V29h-4.6V11.5h4.6v3.2c.7-1.1 1.6-1.9 2.7-2.5 1.1-.6 2.3-.9 3.5-.9.4-.1.8-.1 1.2.1M88.8 20.2c0-.7-.1-1.4-.4-2-.2-.6-.6-1.2-1.1-1.7-.5-.5-1-.9-1.7-1.1-.6-.3-1.3-.4-2-.4-2.9 0-5 2-5 5.3 0 3.2 2.1 5.2 5 5.2.7 0 1.3-.1 2-.4.6-.3 1.2-.7 1.7-1.1.5-.5.8-1.1 1.1-1.7.3-.7.4-1.4.4-2.1zm4.3 8.8h-4.6v-1.4c-1.6 1.3-3.7 2-5.7 1.9-4.4 0-8.5-3.8-8.5-9.3 0-5.5 4.1-9.3 8.5-9.3 2.1-.1 4.1.6 5.7 1.9v-1.4h4.6V29zM119 20.2c0-.7-.1-1.4-.4-2-.2-.6-.6-1.2-1.1-1.7-.5-.5-1-.9-1.7-1.1-.6-.3-1.3-.4-2-.4-2.9 0-5 2-5 5.3 0 3.2 2.1 5.2 5 5.2.7 0 1.3-.1 2-.4.6-.3 1.2-.7 1.7-1.1.5-.5.8-1.1 1.1-1.7.3-.7.4-1.4.4-2.1zm4.3 8.8h-4.6v-1.4c-1.6 1.3-3.7 2-5.7 1.9-4.4 0-8.5-3.8-8.5-9.3 0-5.5 4.1-9.3 8.5-9.3 2.1-.1 4.1.6 5.7 1.9v-1.4h4.6V29zM153.7 20.2c0-.7-.1-1.4-.4-2-.2-.6-.6-1.2-1.1-1.7-.5-.5-1-.9-1.7-1.1s-1.3-.4-2-.4c-2.9 0-5 2-5 5.3 0 3.2 2.1 5.2 5 5.2.7 0 1.3-.1 2-.4.6-.3 1.2-.7 1.7-1.1.5-.5.8-1.1 1.1-1.7.3-.7.4-1.4.4-2.1zM158 29h-4.6v-1.4c-1.6 1.3-3.7 2-5.7 1.9-4.4 0-8.5-3.8-8.5-9.3 0-5.5 4.1-9.3 8.5-9.3 2.1-.1 4.1.6 5.7 1.9v-1.4h4.6V29zM61.9 23.4c.2 1.8 1.8 2.4 3.6 2.4 1.7 0 2.7-.8 2.7-1.8 0-.6-.4-1.3-1.9-1.6l-3.5-.7c-3.1-.7-4.9-2.5-4.9-5 0-3.4 2.7-5.8 7.1-5.8 4.1 0 6.9 2.1 7.5 5.2L68 17c-.2-1.4-1.4-2.4-3.3-2.4-1.8 0-2.4.9-2.4 1.7 0 .6.2 1.2 1.6 1.5l4.1.9c3 .7 4.5 2.6 4.5 4.9 0 3.9-3.1 5.9-7.6 5.9-3.8 0-7.3-1.5-7.8-5.2l4.8-.9zM101.6 4.7H97V29h4.6V4.7zM138.5 28.2c-1.4.8-2.9 1.3-4.5 1.3-4.1 0-6.8-2.2-6.8-7V4.7h4.6v6.8h5.6v3.8h-5.6v6.9c0 2.1 1 3 2.5 3 1-.1 2-.4 2.9-.8l1.3 3.8z"/></g></svg>