<svg version="1.1" id="Layer_1" xmlns="http://www.w3.org/2000/svg" x="0" y="0" viewBox="0 0 160 34" xml:space="preserve"><style>.st1{fill:#B0B0B0}.st3{fill:#fefefe}</style><path class="st1" d="M91.8 10.3c0 .2 0 .3.2.4 3.2 2.5 3.8 5.8 3 9.6-.9 4.3-4.4 7.5-8.6 8-.2 0-.4 0-.5.1-.3.1-.5.1-.8 0h-1.6l-.7-.1c-.3 0-.5-.1-.7-.1-3.8-1.1-6.4-4.2-6.5-8.3-.1-3.8 1.8-8.3 6.3-10.2 2.8-1.2 5.7-1.2 8.6 0 .4.2.9.3 1.3.3 0 .1.1.2 0 .3z"/><path class="st1" d="M91.8 10.3v-.2c1.4-.9 2.9-1 4.5-.8 1.7.2 2.8 1.2 3.6 2.6 1.6 2.8 2.6 5.8 3.8 8.7.5 1.3 1 2.6 1.6 4.1.4-.9.7-1.6.9-2.3 1.6-4 3.2-7.9 4.7-11.9.2-.5.6-1-.3-1.3h2.8c-1.3.4-1.6 1.4-2 2.3-2.3 5.6-4.5 11.3-6.8 16.9h-.2c-1.7-4.2-3.5-8.4-5.2-12.7-.6-1.4-1.2-2.7-2-4-1.3-1.9-2.7-2.4-4.9-1.8-.1.4-.3.4-.5.4zM160 9.5c-.8 0-1.2.4-1.6 1-1.5 2.3-3 4.5-4.5 6.8-.2.3-.3.6-.3.9v8.1c0 .9.2 1.6 1.2 1.8h-4.6c1.5-.2 1.2-1.3 1.2-2.3v-6.7c0-.6-.1-1-.4-1.5-1.4-2.3-2.8-4.6-4.2-7-.4-.6-.8-1.1-1.5-1.4h4.2c-.5.3-.5.8-.2 1.2 1.3 2.1 2.5 4.1 3.8 6.3.8-1.2 1.6-2.4 2.3-3.5.6-.9 1.3-1.9 1.9-2.8.3-.4.7-.9-.4-1.3h3c.1.3.1.3.1.4zM1.4 9.4c4.1 0 8.2-.3 12.3.1 7 .7 9.6 7.2 7.1 12.8-1.7 3.7-4.5 5.8-8.6 5.9H1.4c1.1-.2 1.2-1 1.2-1.8V11c0-.9-.2-1.6-1.2-1.6zM78.1 27.2c-2.6 1.9-5.7 1.6-7.8-.9-1.7-2-3-4.2-4.4-6.3-.4-.6-.8-.9-1.5-.8-2.2.1-2.2.1-2.2 2.3v4.9c0 .9.1 1.7 1.2 1.9h-4.6c1.1-.3 1.1-1.1 1.1-2.1V11.3c0-.8 0-1.7-1.1-1.9h7.8c3.5.1 5.3 3.2 3.7 6.3-.5 1-1.2 1.8-2.2 2.4-.4.3-.6.4-.2.9 1.5 2.3 3 4.6 4.8 6.7 1.7 2 3 2.2 5.3 1.3.1-.1.2 0 .1.2zM23.7 9.3h4.8c-1.4.1-1.3 1.2-1.3 2.2v10.4c0 2.1.7 3.9 2.7 4.8 2 1 3.9.7 5.8-.5 1.3-.8 2.1-1.7 2-3.5-.2-3.8 0-7.6-.1-11.4 0-.8 0-1.8-1.2-2h4.7c-.4.3-1 .2-1.1.7-.2.5-.1 1-.1 1.5v14.8c0 .9.2 1.6 1.2 1.9h-3c-.4 0-.4-.3-.4-.6v-2.2c-.4.4-.7.6-1 .9-2.2 1.8-4.6 2.5-7.4 1.9-2.7-.6-4.3-2.7-4.3-5.7V11.2c-.1-.9 0-1.8-1.3-1.9zM52.6 17.5c2.4.6 3.7 1.9 4 4 .3 2.3-.3 4.2-2 5.7-.7.6-1.6.9-2.6.9h-8.7c1.2-.2 1.2-1 1.2-1.9V11.1c0-.8 0-1.6-1.1-1.8 2.5 0 4.9-.1 7.4 0 1.9.1 3.4 1.2 4 3.1.6 1.9 0 3.5-1.6 4.7-.1.2-.2.2-.6.4zM145.1 28.2h-6.2c.1-.4.6-.1.6-.4 0-.3-.4-.4-.6-.6-2.4-2.4-4.9-4.8-7.3-7.2-.3-.3-.5-.6-.7-.9-.1 0-.2.1-.3.1v7c0 1 .2 1.9 1.4 2h-5.1c1.4-.1 1.5-1.1 1.5-2.1V11.2c0-.8 0-1.7-1.2-1.8h4.9c-1.3.1-1.5 1.1-1.5 2.1v7c1.5-1.4 2.9-2.7 4.3-4.1 1.5-1.4 2.9-2.8 4.4-4.2.4-.4.7-.7-.1-.9h3.8c-2.5.3-3.8 2.3-5.4 3.8-1.5 1.4-2.9 2.9-4.4 4.3-.2.2-.5.4-.1.7 3 2.8 5.5 6.1 8.9 8.4 1 .8 2 1.3 3.1 1.7zM124.6 11.9c-.5-.1-.6-.4-.9-.7-1.7-1.8-4.6-2.1-6.4-.8-2.1 1.6-1.9 4.6.4 5.8 1.5.7 3.2 1.2 4.7 1.9 3.2 1.4 4.2 5.1 2.3 7.9-1.1 1.5-2.6 2.1-4.3 2.2-1.8.1-3.6 0-5.5.1-.4 0-.7 0-.7-.5v-5c.3.3.2.5.2.7.3 2.6 1.3 3.6 3.8 4 1.3.2 2.7.2 3.9-.4 1.4-.6 2.2-1.7 2.3-3.3.1-1.5-.8-2.5-2-3.1-1.1-.6-2.4-1-3.6-1.4-1.3-.5-2.5-1-3.3-2.3-2.2-3.6.1-7.8 4.4-8 1.1-.1 2.2.2 3.2.4.2 0 .5.1.6.4.3.6.6 1.3.9 2.1z"/><path class="st3" d="M94 19.7c0 5.6-6.1 9.4-11.1 7-4-1.9-6.5-6.8-5.7-10.8.9-4.1 5.1-6.7 9.2-5.5 3.8 1.1 6.5 3.6 7.5 7.6.1.5.1 1.1.1 1.7zM4.9 17.7v-7.1c0-.4-.1-.8.5-.8 3 0 5.9-.1 8.8 1.2 5.7 2.5 7.2 10.1 2.8 14.5-1.4 1.4-3.1 1.9-5 2.1-1.6.2-3.2.2-4.7-.1-1.7-.4-2.3-1-2.3-2.8-.1-2.4-.1-4.7-.1-7zM63.7 18.6c-1.5 0-1.5 0-1.5-1.5v-6.5c0-.6.2-.8.8-.8h1.1c3.3.1 5.3 2.9 4.5 6.1-.4 1.6-1.7 2.5-3.7 2.7h-1.2zM49.1 18.5h1.5c2 .1 3.1 1 3.7 2.9.4 1.3.5 2.7.1 4-.3 1.1-1 1.9-2.1 2.1-1.3.3-2.6.3-3.9-.1-.9-.3-1.5-.9-1.5-1.9V19c0-.5.2-.6.7-.6.5 0 1 0 1.5.1 0-.1 0-.1 0 0zM48.9 17.9c-2 0-2 0-2-1.8v-5.6c0-.8.2-1 1-.9.7.1 1.4.1 2.1.2 1.4.3 2.6 1.2 2.9 2.7.4 1.7.2 3.3-1 4.5-1 1-2.1.9-3 .9z"/></svg>