<svg width="80" height="80" fill="none" xmlns="http://www.w3.org/2000/svg"><path fill="#E5E5E5" d="M0 0h80v80H0z"/><circle cx="40" cy="40" r="40" fill="#364274"/><path d="M58.901 58H21.094A1.09 1.09 0 0120 56.917v-5.99a1.09 1.09 0 011.094-1.083h37.812A1.09 1.09 0 0160 50.927v5.99A1.097 1.097 0 0158.901 58zm-37.493-1.395h37.179v-5.366H21.408v5.366z" fill="#fff"/><path d="M57.737 51.239H22.258V29.216c0-.967.793-1.758 1.774-1.758h31.931c.976 0 1.774.786 1.774 1.758V51.24zm-34.07-1.395h32.657V29.216c0-.2-.164-.363-.366-.363H24.033a.365.365 0 00-.367.363v20.628zm33.005-24.808H41.237a1.063 1.063 0 01-1.066-1.056v-4.924c0-.582.48-1.056 1.066-1.056h15.435c.587 0 1.066.474 1.066 1.056v4.924a1.06 1.06 0 01-1.066 1.056zM41.58 23.64h14.75v-4.246H41.58v4.246z" fill="#fff"/><path d="M49.668 24.375H48.26v3.767h1.408v-3.767zm4.037 15.718H39.763v-7.534h13.942v7.534zm-12.534-1.396h11.126v-4.743H41.17v4.743zM29.248 32.56h-2.582v1.394h2.582V32.56zm6.055 0h-2.582v1.394h2.582V32.56zm-6.055 6.137h-2.582v1.396h2.582v-1.396zm6.055 0h-2.582v1.396h2.582v-1.396zm-6.055 5.999h-2.582v1.395h2.582v-1.395zm6.055 0h-2.582v1.395h2.582v-1.395zm18.214 0H39.904v1.395h13.613v-1.395zm-9.342 8.464H35.82v1.394h8.355V53.16z" fill="#fff"/></svg>