<svg width="24" height="24" viewBox="0 0 24 24" fill="none" xmlns="http://www.w3.org/2000/svg">
<path d="M16.5041 7.21384L10.1041 13.7138L7.30405 11.4138C7.00405 11.1138 6.40405 11.1138 6.10405 11.5138C5.90405 11.9138 6.00405 12.4138 6.30405 12.7138L9.60405 15.5138C9.80405 15.6138 10.0041 15.7138 10.2041 15.7138C10.4041 15.7138 10.6041 15.6138 10.8041 15.5138L17.7041 8.51384C18.0041 8.21384 18.0041 7.71384 17.7041 7.31384C17.4041 6.91384 16.9041 6.91384 16.5041 7.21384Z" fill="#364274"/>
<path d="M11.9999 23C18.0751 23 22.9999 18.0751 22.9999 12C22.9999 5.92487 18.0751 1 11.9999 1C5.92481 1 0.999939 5.92487 0.999939 12C0.999939 18.0751 5.92481 23 11.9999 23Z" stroke="#364274" stroke-width="2" stroke-miterlimit="10"/>
</svg>
