<svg width="80" height="80" fill="none" xmlns="http://www.w3.org/2000/svg"><path fill="#E5E5E5" d="M0 0h80v80H0z"/><circle cx="40" cy="40" r="40" fill="#364274"/><path d="M23.59 19C21.61 19 20 20.697 20 22.784v6.486c0 1.377.702 2.581 1.747 3.244C20.702 33.175 20 34.38 20 35.757v6.486c0 1.377.702 2.581 1.747 3.243C20.702 46.15 20 47.353 20 48.73v6.486C20 57.303 21.61 59 23.59 59h32.82c1.98 0 3.59-1.697 3.59-3.784V48.73c0-1.377-.702-2.581-1.747-3.243C59.298 44.824 60 43.62 60 42.242v-6.486c0-1.377-.702-2.581-1.747-3.243C59.298 31.85 60 30.646 60 29.27v-6.486C60 20.697 58.39 19 56.41 19H23.59zm0 1.081h32.82c1.43 0 2.564 1.196 2.564 2.703v6.486c0 1.507-1.134 2.703-2.564 2.703H23.59c-1.43 0-2.564-1.196-2.564-2.703v-6.486c0-1.507 1.134-2.703 2.564-2.703zm6.154 3.243c-1.41 0-2.564 1.217-2.564 2.703 0 1.486 1.154 2.703 2.564 2.703 1.41 0 2.564-1.217 2.564-2.703 0-1.486-1.154-2.703-2.564-2.703zm0 1.081c.855 0 1.538.72 1.538 1.622 0 .902-.683 1.622-1.538 1.622-.856 0-1.539-.72-1.539-1.622 0-.902.683-1.622 1.539-1.622zM40 25.486a.527.527 0 00-.513.541c0 .299.23.54.513.54h11.282a.527.527 0 00.513-.54c0-.299-.23-.54-.513-.54H40zm-16.41 7.568h32.82c1.43 0 2.564 1.196 2.564 2.703v6.486c0 1.507-1.134 2.703-2.564 2.703H23.59c-1.43 0-2.564-1.196-2.564-2.703v-6.486c0-1.507 1.134-2.703 2.564-2.703zm6.154 3.243c-1.41 0-2.564 1.217-2.564 2.703 0 1.486 1.154 2.703 2.564 2.703 1.41 0 2.564-1.217 2.564-2.703 0-1.486-1.154-2.703-2.564-2.703zm0 1.081c.855 0 1.538.72 1.538 1.622 0 .902-.683 1.622-1.538 1.622-.856 0-1.539-.72-1.539-1.622 0-.902.683-1.622 1.539-1.622zM40 38.46a.527.527 0 00-.513.541c0 .298.23.54.513.54h11.282a.527.527 0 00.513-.54c0-.298-.23-.54-.513-.54H40zm-16.41 7.568h32.82c1.43 0 2.564 1.196 2.564 2.703v6.486c0 1.507-1.134 2.703-2.564 2.703H23.59c-1.43 0-2.564-1.196-2.564-2.703V48.73c0-1.507 1.134-2.703 2.564-2.703zm6.154 3.243c-1.41 0-2.564 1.217-2.564 2.703 0 1.486 1.154 2.703 2.564 2.703 1.41 0 2.564-1.217 2.564-2.703 0-1.486-1.154-2.703-2.564-2.703zm0 1.081c.855 0 1.538.72 1.538 1.622 0 .902-.683 1.622-1.538 1.622-.856 0-1.539-.72-1.539-1.622 0-.902.683-1.622 1.539-1.622zM40 51.432a.527.527 0 00-.513.541c0 .299.23.54.513.54h11.282a.527.527 0 00.513-.54c0-.299-.23-.54-.513-.54H40z" fill="#fff"/></svg>