<svg width="80" height="80" fill="none" xmlns="http://www.w3.org/2000/svg"><path fill="#E5E5E5" d="M0 0h80v80H0z"/><path d="M0 0h80v80H0V0z" fill="#E5E5E5"/><path d="M40 80c22.091 0 40-17.909 40-40S62.091 0 40 0 0 17.909 0 40s17.909 40 40 40z" fill="#364274"/><path d="M58.236 52.236A2.767 2.767 0 0061 49.472V22.764A2.767 2.767 0 0058.236 20H23.764A2.767 2.767 0 0021 22.764v26.748a2.767 2.767 0 002.764 2.764h16.26v6.26h-5.69a.73.73 0 00-.732.732c0 .407.325.732.731.732H47.18a.73.73 0 00.518-1.25.728.728 0 00-.518-.213h-5.691v-6.301h16.747zM23.764 21.423h34.431c.732 0 1.342.61 1.342 1.341v4.96H22.423v-4.96c0-.772.61-1.341 1.341-1.341zm-1.341 28.049V29.105h37.114V49.47c0 .732-.61 1.342-1.342 1.342h-34.43c-.733 0-1.342-.61-1.342-1.342v.002zm2.642-24.431a.75.75 0 01-.203-.488.75.75 0 01.203-.488c.244-.244.732-.244 1.016 0a.75.75 0 01.204.488.675.675 0 01-.204.488.75.75 0 01-.488.203c-.203.04-.365-.04-.528-.203zm3.862 0a.75.75 0 01-.203-.488.75.75 0 01.203-.488c.244-.244.732-.244 1.016 0a.75.75 0 01.203.488.673.673 0 01-.203.488.75.75 0 01-.488.203.529.529 0 01-.528-.203zm3.862 0a.75.75 0 01-.204-.488.75.75 0 01.204-.488.797.797 0 011.016 0 .75.75 0 01.203.488.75.75 0 01-.203.488.75.75 0 01-.488.203c-.163 0-.406-.04-.528-.203zm13.048 11.95l-6.463 6.424a.75.75 0 01-.488.203.75.75 0 01-.488-.203l-2.723-2.724a.712.712 0 010-1.016.712.712 0 011.016 0l2.195 2.236 5.976-5.935a.712.712 0 011.016 0 .752.752 0 01-.04 1.016l-.001-.001z" fill="#fff"/></svg>