<svg width="126" height="53" fill="none" xmlns="http://www.w3.org/2000/svg"><path d="M59.454 20.69l-1.705-2.863h-2.024v-2.636h2.94a.943.943 0 00.775-.39c.2-.263.304-.608.304-1.048 0-.44-.1-.79-.304-1.048a.927.927 0 00-.774-.39h-3.601v8.38H52.78V9.416h5.886c.489 0 .94.101 1.354.302.413.2.77.49 1.068.86.304.37.537.816.703 1.337a5.6 5.6 0 01.252 1.72c0 .866-.157 1.626-.475 2.272-.313.647-.74 1.143-1.273 1.475l2.152 3.315h-2.993v-.007zm6.826 0a3.19 3.19 0 01-1.406-.314 3.282 3.282 0 01-1.116-.885 4.271 4.271 0 01-.737-1.369 5.633 5.633 0 01-.261-1.77c0-.634.086-1.224.261-1.751.176-.534.418-.992.737-1.369a3.281 3.281 0 011.116-.885 3.189 3.189 0 011.406-.314h1.667c.376 0 .703.07.984.208.28.138.513.332.703.57.19.246.327.534.418.88a4.4 4.4 0 01.137 1.117c0 .766-.166 1.337-.498 1.72-.333.383-.88.571-1.644.571H65.71v-1.582h1.876c.342 0 .513-.2.513-.609 0-.426-.166-.64-.499-.64h-1.34c-.393 0-.712.182-.959.54-.247.358-.365.866-.365 1.525 0 .66.123 1.155.365 1.482.247.332.566.495.96.495h3.572v2.38H66.28zm7.264 0c-.798 0-1.397-.277-1.791-.823-.4-.552-.599-1.33-.599-2.354V9.56h2.18v2.467h2.627v2.398h-2.626v2.862c0 .685.256 1.024.774 1.024h1.786v2.378h-2.351zm5.452 0c-.693 0-1.206-.239-1.548-.71-.342-.47-.513-1.086-.513-1.839 0-.766.17-1.38.513-1.858.342-.47.86-.71 1.548-.71h2.442v1.683h-1.943c-.323 0-.484.2-.484.609 0 .408.152.609.46.609h2.613v-2.499c0-.985-.38-1.475-1.145-1.475h-3.653v-2.467h3.677c1.093 0 1.914.358 2.456 1.068.541.709.812 1.732.812 3.063v4.532h-5.235v-.007zm7.488-9.517a.896.896 0 01-.718-.339c-.19-.226-.28-.533-.28-.929 0-.37.095-.665.28-.891a.89.89 0 01.718-.34h.304c.29 0 .527.114.708.34.185.226.275.52.275.891 0 .396-.09.703-.275.93a.871.871 0 01-.708.338h-.304zm-.96 9.516v-8.662h2.195v8.662h-2.195zm3.496.001V8.523h2.194V20.69H89.02zm6.892 0v-2.92h6.384a.504.504 0 00.409-.2c.105-.132.157-.32.157-.565 0-.245-.052-.433-.157-.571a.492.492 0 00-.409-.208h-3.757c-.394 0-.76-.081-1.097-.25a2.657 2.657 0 01-.87-.697 3.302 3.302 0 01-.565-1.068 4.39 4.39 0 01-.204-1.387c0-.508.066-.973.204-1.4.138-.42.323-.784.566-1.085.242-.302.532-.534.869-.697a2.486 2.486 0 011.097-.245h6.489v2.9h-6.384c-.167 0-.3.063-.4.188-.1.126-.151.314-.151.553 0 .232.052.414.151.552a.47.47 0 00.4.207h3.757c.404 0 .77.082 1.102.251a2.7 2.7 0 01.869.703c.247.302.437.666.57 1.086.138.42.205.885.205 1.381 0 .521-.067.992-.205 1.413-.137.42-.327.784-.57 1.092-.247.307-.536.54-.869.703a2.46 2.46 0 01-1.102.245h-6.489v.018zm13.543 0a3.192 3.192 0 01-2.523-1.2 4.288 4.288 0 01-.736-1.368 5.628 5.628 0 01-.261-1.77c0-.634.085-1.224.261-1.751.176-.534.418-.992.736-1.369a3.192 3.192 0 012.523-1.199h.921a3.204 3.204 0 012.522 1.2c.314.382.561.84.737 1.368.176.533.261 1.117.261 1.751 0 .647-.085 1.237-.261 1.77-.176.534-.418.992-.737 1.369a3.273 3.273 0 01-1.116.885 3.188 3.188 0 01-1.406.313h-.921zm.916-2.643c.385 0 .703-.157.95-.47.247-.315.376-.723.376-1.231 0-.509-.124-.917-.376-1.224a1.169 1.169 0 00-.95-.458h-.931c-.394 0-.712.156-.959.458-.247.307-.366.715-.366 1.224 0 .508.123.916.366 1.23.247.314.565.47.959.47h.931zm4.547 2.643v-8.97c0-1.017.199-1.801.603-2.354.404-.552.998-.822 1.786-.822h2.47v2.291h-1.89c-.261 0-.461.095-.589.276-.128.182-.2.49-.2.923h2.717v2.398h-2.717v6.265h-2.18v-.007zm8.051 0c-.798 0-1.396-.277-1.791-.823-.399-.552-.598-1.33-.598-2.354V9.56h2.18v2.467h2.627v2.398h-2.627v2.862c0 .685.257 1.024.774 1.024h1.787v2.378h-2.352zM57.022 41.517a4.096 4.096 0 01-1.814-.409 4.222 4.222 0 01-1.425-1.142c-.4-.49-.713-1.086-.941-1.776-.228-.697-.342-1.463-.342-2.31 0-.848.114-1.614.342-2.298.228-.69.541-1.28.94-1.776a4.185 4.185 0 011.426-1.155 4.066 4.066 0 011.814-.408h4.176v2.9h-4.333c-.299 0-.574.069-.826.2a1.92 1.92 0 00-.656.566 2.819 2.819 0 00-.432.866c-.104.339-.157.71-.157 1.111 0 .402.053.772.157 1.111.105.339.252.621.432.86.186.239.404.42.656.552.252.132.532.201.826.201h4.333v2.92h-4.176v-.014zm8.247-.001c-.509 0-.979-.106-1.407-.313a3.284 3.284 0 01-1.116-.886 4.273 4.273 0 01-.736-1.368 5.633 5.633 0 01-.261-1.77c0-.634.085-1.224.26-1.751a4.18 4.18 0 01.737-1.375 3.282 3.282 0 011.116-.885 3.187 3.187 0 011.407-.314h.921c.508 0 .979.107 1.406.314a3.28 3.28 0 011.116.885c.314.383.561.841.737 1.375.175.533.261 1.117.261 1.75 0 .647-.085 1.238-.261 1.771a4.119 4.119 0 01-.737 1.368 3.282 3.282 0 01-1.116.886 3.189 3.189 0 01-1.406.313h-.921zm.921-2.642c.385 0 .703-.157.95-.471.247-.314.375-.722.375-1.23 0-.509-.123-.917-.375-1.224a1.17 1.17 0 00-.95-.459h-.931c-.394 0-.713.157-.96.459-.247.307-.365.715-.365 1.224 0 .508.123.916.365 1.23.247.314.566.47.96.47h.931zm10.061 2.642v-4.544c0-.986-.38-1.475-1.145-1.475h-2.194v6.026h-2.205V32.86h4.451c1.088 0 1.905.358 2.456 1.074.551.715.827 1.739.827 3.057v4.532h-2.19v-.007zm3.139 0v-2.379h4.623c.308 0 .46-.182.46-.552 0-.358-.152-.54-.46-.54h-2.575a1.96 1.96 0 01-.893-.2 2.002 2.002 0 01-.67-.547 2.436 2.436 0 01-.418-.822 3.581 3.581 0 01-.142-1.03c0-.395.052-.746.156-1.067.105-.32.252-.59.447-.816.195-.226.418-.401.67-.52.256-.12.532-.183.84-.183h4.822v2.38h-4.413c-.3 0-.447.181-.447.54 0 .357.148.539.447.539h2.627c.674 0 1.197.245 1.563.728.365.49.55 1.105.55 1.858 0 .408-.052.766-.156 1.086-.105.32-.252.596-.442.822-.19.233-.413.408-.67.528a1.993 1.993 0 01-.845.182H79.39v-.007zm11.35 0c-1.093 0-1.915-.357-2.462-1.067-.546-.709-.821-1.732-.821-3.063V32.86h2.194v4.526c0 .998.38 1.494 1.145 1.494h1.154c.76 0 1.14-.496 1.14-1.494V32.86h2.195v4.526c0 1.33-.275 2.354-.822 3.063-.546.71-1.368 1.067-2.465 1.067h-1.259zm5.766.001V29.352h2.195v12.165h-2.195zm5.815-.001c-.798 0-1.397-.276-1.791-.822-.399-.552-.599-1.33-.599-2.354v-7.947h2.181v2.467h2.627v2.392h-2.627v2.862c0 .684.256 1.023.774 1.023h1.786v2.38h-2.351zM106.828 32a.896.896 0 01-.717-.338c-.19-.226-.28-.534-.28-.93 0-.37.095-.665.28-.89a.89.89 0 01.717-.34h.304c.29 0 .528.113.708.34.185.225.276.526.276.89 0 .396-.091.704-.276.93a.871.871 0 01-.708.339h-.304zm-.959 9.517v-8.663h2.194v8.663h-2.194zm9.035-.001v-4.544c0-.986-.38-1.475-1.145-1.475h-2.195v6.026h-2.209V32.86h4.451c1.088 0 1.905.358 2.456 1.074.551.715.827 1.739.827 3.057v4.532h-2.185v-.007zm5.961 3.02v-2.637h1.653c.48 0 .817-.138 1.007-.408.19-.27.281-.684.281-1.242v-3.503c0-.822-.371-1.23-1.117-1.23h-1.116c-.394 0-.717.113-.964.339-.247.226-.375.59-.375 1.104 0 .521.137.88.408 1.074.271.194.656.295 1.154.295.2 0 .418-.013.656-.032.237-.025.475-.062.708-.119v2.36a5.512 5.512 0 01-1.644.257c-1.14 0-2.004-.35-2.593-1.048-.589-.696-.889-1.638-.889-2.818 0-.647.09-1.224.271-1.726.181-.502.428-.93.751-1.274a3.192 3.192 0 011.154-.791 3.98 3.98 0 011.506-.27h1.197c.978 0 1.738.358 2.28 1.067.537.71.807 1.732.807 3.063v3.277c0 1.443-.275 2.517-.826 3.22-.551.697-1.44 1.048-2.665 1.048h-1.644v-.006zM19 37.016H0V2.567l19 34.449zm15.895.088c2.475-1.557 4.446-3.836 5.91-6.842 1.462-3.007 2.194-6.522 2.194-10.546 0-2.9-.385-5.555-1.159-7.966-.77-2.416-1.857-4.481-3.259-6.195-1.401-1.714-3.054-3.044-4.964-3.986-1.91-.935-4-1.406-6.275-1.406L2.005.233l7.415 13.3 17.922.075c1.463 0 2.66.603 3.591 1.808.936 1.206 1.402 2.831 1.402 4.871 0 2.04-.466 3.66-1.402 4.871-.935 1.205-2.132 1.808-3.59 1.808H16.601l14.393 25.51H44.88l-9.985-15.372z" fill="#fff"/></svg>