<svg width="80" height="80" fill="none" xmlns="http://www.w3.org/2000/svg"><path fill="#E5E5E5" d="M0 0h80v80H0z"/><circle cx="40" cy="40" r="40" fill="#364274"/><path d="M52 58.118V20.47A4.475 4.475 0 0047.53 16H32.47A4.475 4.475 0 0028 20.469v37.65a4.475 4.475 0 004.47 4.47h15.06A4.475 4.475 0 0052 58.117zm-22.588-37.65a3.06 3.06 0 013.059-3.056h15.058a3.062 3.062 0 013.06 3.059v3.058H29.411v-3.06zm0 4.473h21.176v28.706H29.412V24.941zm0 33.179v-3.061h21.176v3.059a3.062 3.062 0 01-3.059 3.058H32.471a3.061 3.061 0 01-3.06-3.056z" fill="#fff"/><path d="M43.764 19.765h-7.53a.706.706 0 100 1.411h7.53a.706.706 0 100-1.411zM40 55.53a2.588 2.588 0 100 5.176 2.588 2.588 0 000-5.177zm0 3.764a1.176 1.176 0 110-2.352 1.176 1.176 0 010 2.352zm7.53-22.588h-1.28l.904-.906a.707.707 0 000-.998l-2.662-2.662a.727.727 0 00-.998 0l-.906.906v-1.281a.706.706 0 00-.706-.706h-3.764a.706.706 0 00-.706.706v1.28l-.905-.905a.705.705 0 00-.999 0l-2.662 2.662a.706.706 0 000 .998l.905.906h-1.28a.705.705 0 00-.706.706v3.765a.705.705 0 00.706.705h1.28l-.905.906a.708.708 0 000 .998l2.662 2.663a.727.727 0 00.998 0l.906-.906v1.28a.706.706 0 00.706.706h3.764a.706.706 0 00.706-.705v-1.281l.906.906a.706.706 0 00.998 0l2.663-2.663a.706.706 0 000-.998l-.906-.906h1.28a.705.705 0 00.706-.705v-3.765a.706.706 0 00-.706-.706zm-.706 3.765h-1.505a.705.705 0 00-.665.47 4.815 4.815 0 01-.2.48.707.707 0 00.139.802l1.064 1.064-1.664 1.664-1.064-1.064a.703.703 0 00-.801-.139 5.116 5.116 0 01-.48.2.705.705 0 00-.472.665v1.505h-2.352v-1.505a.705.705 0 00-.471-.665 5.126 5.126 0 01-.48-.2.707.707 0 00-.802.14l-1.064 1.063-1.664-1.664 1.064-1.064a.706.706 0 00.139-.802 4.814 4.814 0 01-.2-.48.706.706 0 00-.665-.47h-1.505v-2.353h1.505a.706.706 0 00.666-.471c.057-.163.124-.323.199-.48a.707.707 0 00-.139-.802l-1.064-1.064 1.664-1.664 1.064 1.064a.706.706 0 00.801.14 5.01 5.01 0 01.48-.2.705.705 0 00.472-.666v-1.504h2.352v1.504a.705.705 0 00.471.666c.164.058.324.125.48.2a.705.705 0 00.802-.14l1.064-1.064 1.664 1.664-1.064 1.064a.707.707 0 00-.139.803c.075.156.142.316.2.479a.705.705 0 00.665.47h1.505v2.354z" fill="#fff"/><path d="M40 36.706a2.588 2.588 0 100 5.176 2.588 2.588 0 000-5.176zm0 3.764a1.176 1.176 0 110-2.352 1.176 1.176 0 010 2.352z" fill="#fff"/></svg>