<svg width="120" height="19" fill="none" xmlns="http://www.w3.org/2000/svg"><path d="M6 14L2.9 4h-.1c.1 2 .2 3.4.2 4.1V14H.6V1.3h3.7l3 9.7h.1l3.2-9.7h3.7V14h-2.5V8 7c0-.4 0-1.4.1-3h-.1L8.4 14H6zM23.3 14l-.5-1.3h-.1c-.4.6-.9 1-1.4 1.2-.5.2-1.1.3-1.8.3-.9 0-1.7-.3-2.2-.8-.5-.5-.8-1.3-.8-2.3 0-1 .4-1.8 1.1-2.3.7-.5 1.8-.8 3.3-.8l1.7-.1v-.4c0-1-.5-1.5-1.5-1.5-.8 0-1.7.2-2.7.7l-.9-1.8c1.1-.6 2.4-.9 3.7-.9 1.3 0 2.3.3 3 .9.7.6 1 1.4 1 2.6V14h-1.9zm-.8-4.5h-1c-.8 0-1.3.2-1.7.4-.4.2-.6.6-.6 1.2 0 .7.4 1.1 1.3 1.1.6 0 1.1-.2 1.5-.5.4-.3.6-.8.6-1.4v-.8h-.1zM34.6 4.3v2h-4.1V14h-2.6V4.3h6.7zM39.1 4.3V8h3.7V4.3h2.6V14h-2.6v-4h-3.7v4h-2.6V4.3h2.6zM54.4 14l-.5-1.3h-.1c-.4.6-.9 1-1.4 1.2-.5.2-1.1.3-1.8.3-.9 0-1.7-.3-2.2-.8-.5-.5-.8-1.3-.8-2.3 0-1 .4-1.8 1.1-2.3.7-.5 1.8-.8 3.3-.8l1.7-.1v-.4c0-1-.5-1.5-1.5-1.5-.8 0-1.7.2-2.7.7l-.9-1.8c1.1-.6 2.4-.9 3.7-.9 1.3 0 2.3.3 3 .9.7.6 1 1.4 1 2.6V14h-1.9zm-.8-4.5h-1c-.8 0-1.3.2-1.7.4-.4.2-.6.6-.6 1.2 0 .7.4 1.1 1.3 1.1.6 0 1.1-.2 1.5-.5.4-.3.6-.8.6-1.4v-.8h-.1zM67 4.3v2h-3.2V14h-2.6V6.3H58v-2h9zM73 14h-1.5V2.6h-4V1.3H77v1.3h-4V14zM83.2 14.2c-.6 0-1.2-.1-1.7-.3-.5-.2-.9-.6-1.3-1.1h-.1c.1.6.1 1.1.1 1.6v3.9h-1.4V4.5H80l.2 1.3h.1c.4-.5.8-.9 1.3-1.1.5-.2 1.1-.3 1.7-.3 1.3 0 2.2.4 2.9 1.3.7.9 1 2.1 1 3.6 0 1.6-.3 2.8-1 3.6-.8.8-1.8 1.3-3 1.3zM83 5.5c-1 0-1.7.3-2.1.8-.4.5-.7 1.4-.7 2.6v.3c0 1.3.2 2.3.7 2.9.4.6 1.2.9 2.1.9.8 0 1.5-.3 1.9-1 .5-.7.7-1.6.7-2.8 0-1.2-.2-2.1-.7-2.7-.4-.7-1.1-1-1.9-1zM93.7 14.2c-1.4 0-2.5-.4-3.3-1.3-.8-.9-1.2-2-1.2-3.6 0-1.5.4-2.8 1.1-3.7.8-.9 1.8-1.4 3-1.4s2.1.4 2.8 1.2c.7.8 1 1.8 1 3.1v.9h-6.6c0 1.1.3 2 .8 2.5.5.6 1.3.9 2.3.9 1 0 2-.2 3-.6v1.3c-.5.2-1 .4-1.4.5-.3.1-.9.2-1.5.2zm-.4-8.7c-.8 0-1.4.2-1.8.7-.5.5-.7 1.2-.8 2.1h5c0-.9-.2-1.6-.6-2.1-.4-.5-1.1-.7-1.8-.7zM101 4.5v6l-.1 1.6v.5l5.2-8.1h1.8V14h-1.3V6l-5.1 8.1h-1.8V4.6h1.3v-.1zm2.7-1.3c-1.1 0-1.9-.2-2.3-.6-.4-.4-.8-1.1-.8-2h1.4c.1.6.2 1 .5 1.3.3.2.7.4 1.4.4.6 0 1-.1 1.3-.4.3-.3.5-.7.5-1.2h1.4c-.1.9-.4 1.6-.9 2-.6.3-1.4.5-2.5.5zM119.2 17.3h-1.4V14h-6.7v3.3h-1.4v-4.5h.7c.8-1.1 1.4-2.3 1.8-3.7.4-1.4.7-2.9.7-4.6h4.8v8.3h1.4v4.5h.1zm-2.8-4.6V5.6h-2.1c-.1 1.3-.3 2.6-.7 3.9-.4 1.3-.9 2.4-1.6 3.2h4.4z" fill="#fff"/></svg>