<svg width="123" height="20" fill="none" xmlns="http://www.w3.org/2000/svg"><path d="M10.4 14.8H4.8l-1.4 4H0L6.4.7H9l6.5 18.1h-3.7l-1.4-4zm-4.7-2.9h3.9l-1.3-4-.5-2.8h-.1L7.1 8l-1.4 3.9zM28.4 18.8H17V.8h3.5v14.8h7.9v3.2zM29.8 17.1c0-.6.2-1.1.6-1.4.4-.3.9-.5 1.5-.5s1.2.2 1.5.5c.3.3.6.8.6 1.4 0 .6-.2 1.1-.6 1.4-.4.3-.9.5-1.6.5-.6 0-1.1-.2-1.5-.5-.4-.3-.5-.8-.5-1.4zM48.7 18c-.5.4-1.2.7-2.1.8-.9.1-1.7.3-2.6.3-1.1 0-2.1-.2-3.1-.5s-1.8-.9-2.6-1.6c-.7-.7-1.3-1.7-1.8-2.9-.4-1.2-.7-2.6-.7-4.3 0-1.8.2-3.2.7-4.4.5-1.2 1.1-2.1 1.9-2.9.8-.7 1.6-1.2 2.6-1.6 1-.4 1.9-.5 2.9-.5s1.9.1 2.6.2c.7.1 1.3.3 1.8.5l-.7 3c-.4-.2-.9-.3-1.4-.4-.5-.1-1.2-.1-2-.1-1.4 0-2.6.5-3.4 1.5-.9 1-1.3 2.6-1.3 4.7 0 .9.1 1.8.3 2.5.2.8.5 1.4.9 2 .4.6.9 1 1.6 1.3.6.3 1.3.5 2.2.5.8 0 1.4-.1 2-.2.5-.2 1-.4 1.4-.6l.8 2.7zM60.7.8H64v11.6c0 1.2-.2 2.2-.5 3-.3.8-.7 1.5-1.3 2.1-.6.6-1.2.9-2 1.2-.8.3-1.7.4-2.6.4-4.6 0-6.8-2.1-6.8-6.2V.9h3.5v11.3c0 .7.1 1.3.2 1.8s.3.9.6 1.2c.3.3.6.5 1 .6.4.1.9.2 1.4.2 1.1 0 1.9-.3 2.3-.9.5-.6.7-1.6.7-2.9V.8h.2zM67.4.8h3.5v18h-3.5V.8zM82.1 13.9c0-.5-.2-1-.6-1.3-.4-.3-.9-.7-1.5-.9-.6-.3-1.3-.6-2-.9-.7-.3-1.4-.7-2-1.1-.6-.4-1.1-1-1.5-1.6-.4-.6-.6-1.5-.6-2.5 0-.9.1-1.6.4-2.3.3-.6.7-1.2 1.2-1.6.5-.4 1.2-.7 1.9-1 .7-.2 1.6-.3 2.5-.3 1 0 2 .1 3 .3.9.2 1.7.4 2.3.8l-1.1 3c-.4-.2-.9-.5-1.7-.7-.8-.2-1.6-.3-2.4-.3-.8 0-1.5.2-1.9.5-.4.3-.7.8-.7 1.3s.2.9.6 1.3c.4.3.9.7 1.5.9.6.3 1.3.6 2 .9.7.3 1.4.7 2 1.1.6.4 1.1 1 1.5 1.6.4.6.6 1.4.6 2.4s-.2 1.8-.5 2.5-.8 1.3-1.3 1.7c-.6.5-1.3.8-2.1 1-.8.3-1.7.4-2.7.4-1.3 0-2.4-.1-3.4-.4-1-.3-1.7-.5-2.2-.7l1.1-3c.2.1.4.2.7.3.3.1.6.2 1 .3l1.2.3c.4.1.9.1 1.3.1 1 0 1.8-.2 2.4-.5.7-.3 1-.9 1-1.6zM88.3.8h3.5v18h-3.5V.8zM99.7 9.4l-1.4-2.8h-.1l.4 2.8v9.4h-3.3V.7h2.6l6.8 9.6L106 13h.1l-.4-2.7V.8h3.3v18.1h-2.6l-6.7-9.5zM112.1.8h10.7v3.1h-7.1v4.2h6.5v3.1h-6.5v4.4h7.3v3.1h-10.8V.8h-.1z" fill="#fff"/></svg>