<svg width="128" height="27" fill="none" xmlns="http://www.w3.org/2000/svg"><path d="M100.1 9.8v11h-1.9v-9.2h-5v9.2h-1.9v-11h8.8zM104.3 27h-1.9V9.8h1.9v1.5c1.3-1.6 2.9-1.8 3.8-1.8 3.4 0 5.4 2.9 5.4 5.8 0 3-1.9 5.7-5.3 5.7-1.8 0-3-.8-3.8-1.9l-.1 7.9zm7.2-11.6c0-2.7-1.8-4.1-3.6-4.1s-3.7 1.5-3.7 4.1c0 2.3 1.4 4.1 3.7 4.1 2.2-.1 3.6-1.9 3.6-4.1zM114.4 15.3c0-3.3 2.5-5.8 5.8-5.8s5.8 2.5 5.8 5.8-2.5 5.8-5.8 5.8-5.8-2.4-5.8-5.8zm1.9 0c0 2.7 1.9 4.1 3.9 4.1s3.9-1.4 3.9-4.1c0-2.7-1.9-4.1-3.9-4.1s-3.9 1.5-3.9 4.1zM3.1 9.9h5.1v4.4l7.3-12.6h5.6L12.4 15l4.3 5.8h-5.8L8.2 16v4.8H3.1V9.9z" fill="#fff"/><path d="M16.7 9.9h5v3.5h2.1V9.9h5.1v10.9h-5.1v-4h-2.1v4h-5V9.9zM43.1 20.8h-4.9v-1.1c-.6.7-1.7 1.6-3.5 1.6-2.5 0-5-2.1-5-6 0-3.4 2-5.9 5-5.9 1.9 0 2.9.9 3.5 1.7V9.9h4.9v10.9zm-4.7-5.5c0-1.3-.8-2.1-1.9-2.1-1.1 0-1.9.9-1.9 2.1 0 1.3.8 2.1 1.9 2.1 1.1 0 1.9-.8 1.9-2.1zM49.3 9.9v5.2l2.9-5.2h4.6v10.9H52v-5.4l-2.9 5.4h-4.6V9.9h4.8zM46.6 5h3.1c.1 1.5 1.2 1.6 1.4 1.6.2 0 1.3-.1 1.4-1.6h3.1c-.3 1.8-1.7 3.5-4.5 3.5-2.8-.1-4.2-1.7-4.5-3.5zM70.7 9.9v10.9h-5.1v-7.4h-2.2v10.2h-5.1V9.9h12.4zM85 20.8h-4.9v-1.1c-.6.7-1.7 1.6-3.5 1.6-2.5 0-5-2.1-5-6 0-3.4 2-5.9 5-5.9 1.9 0 2.9.9 3.5 1.7V9.9H85v10.9zm-4.7-5.5c0-1.3-.8-2.1-1.9-2.1-1.1 0-1.9.9-1.9 2.1 0 1.3.8 2.1 1.9 2.1 1.1 0 1.9-.8 1.9-2.1z" fill="#fff"/></svg>