<svg width="122" height="23" fill="none" xmlns="http://www.w3.org/2000/svg"><path d="M20 .9c.3.1.7.1 1 .2.9.3 1.6.8 2 1.6.2.3.2.7.2 1.1v7.5c0 1.2-.7 2.1-1.9 2.6-.6.2-1.1.3-1.7.3-.2 0-.2.1-.1.2 1.2 2.4 2.4 4.8 3.6 7.3 0 .1.1.2.1.3h-5.9c-.2 0-.3-.1-.3-.2-1.2-2.5-2.4-4.9-3.7-7.4-.1-.2-.2-.2-.3-.2H6.9c-.2 0-.3.1-.3.3v7.3c0 .2 0 .3-.2.3H1.1c-.1-.1 0-.1 0-.2V9v-.2c.1-.1.3-.1.5-.1h15.7c.5 0 .5 0 .5-.5V6.8c0-.3 0-.3-.3-.3H1.7c-.2 0-.3 0-.5-.1v-.2V1C1 1 1 1 1 .9h19zM93.3.9c.3.1.7.1 1 .2.9.3 1.6.8 2 1.6.2.3.2.7.2 1v15.4c0 1.2-.7 2.1-1.9 2.6-.5.2-1.1.3-1.6.3H77.9c-1.1 0-2.1-.3-2.9-1.2-.4-.5-.6-1-.6-1.7V8.8c0-.2.1-.2.2-.2h5.1c.2 0 .2.1.2.2V16c0 .2 0 .3.3.3h10.6c.2 0 .3-.1.3-.3V6.5c0-.2 0-.3-.3-.3H74.7c-.2 0-.3 0-.3-.3V3.3c0-.8.4-1.4 1-1.8.6-.4 1.2-.7 2-.8M68.9.9c.3.1.7.1 1 .2 1 .3 1.8.8 2.1 1.9.1.3.1.6.1.9v7.3c0 1.5-.9 2.4-2 2.9-.6.2-1.1.3-1.7.3H55.8c-.3 0-.3.1-.3.3v7.2c0 .2 0 .2-.2.2h-5.1c-.2 0-.2-.1-.2-.2V9c0-.2.1-.2.2-.2h16.2c.2 0 .3 0 .3-.3V6.8c0-.2 0-.2-.2-.2H50.3c-.2 0-.3-.1-.3-.3V1.4v-.3h18.5M25.5.9h22.2v5.3c0 .1.1.2 0 .2-.1-.1-.1-.3-.1-.4V1.4c0-.4 0-.4-.4-.4H26c-.2 0-.4 0-.5-.1z" fill="#fff"/><path d="M19.8.9c-.1.1-.2 0-.3 0H1.1h18.7zM108.3 8.6h9.1c.9 0 1.7.2 2.5.8.7.5 1.1 1.2 1.1 2.1v7.6c0 1.3-.8 2-1.8 2.5-.6.3-1.2.4-1.8.4H99.1c-.2 0-.2 0-.2-.2v-5.1c0-.2.1-.3.3-.3h16.1c.3 0 .3-.1.3-.3v-1.7c0-.2-.1-.2-.2-.2h-12.7c-.9 0-1.8-.2-2.6-.8-.7-.5-1.1-1.2-1.1-2.1V8.9c0-.2.1-.2.2-.2 2.9-.1 6-.1 9.1-.1zM25.5.9h21.8c.4 0 .4 0 .4.4v5.1H25.8c-.3 0-.3-.1-.3-.3V1.2.9zM101.9.9H120.6c.3 0 .3 0 .3.3v5.1H99c-.2 0-.3-.1-.3-.3V3.4c0-.6.3-1.2.7-1.6.8-.5 1.6-.8 2.5-.9zM39.3 15.3v6.4c0 .2 0 .3-.3.3h-5.1c-.2 0-.2 0-.2-.2V8.9c0-.2 0-.2.2-.2H39c.2 0 .2 0 .2.2.1 2.1.1 4.3.1 6.4z" fill="#fff"/></svg>