<svg width="108" height="23" fill="none" xmlns="http://www.w3.org/2000/svg"><path d="M4.8 1.596H2.5V7.76H1.2V.316H6v7.562H4.7V1.596h.1zM10.9 7.296c-.2.116-.4.349-.8.465-.3.117-.7.233-1 .233-.7 0-1.3-.233-1.6-.814-.3-.466-.5-1.164-.5-2.094 0-.93.2-1.629.6-2.094.4-.465.9-.698 1.6-.698.2 0 .5 0 .7.116l.6.35c.2.116.3.348.4.697.1.233.1.582.1.93v.466c0 .116 0 .35-.1.582H8.1c0 .465.1.814.3 1.047.2.232.5.349.9.349.3 0 .5 0 .7-.117.2-.116.4-.232.5-.232l.4.814zM9.2 3.34c-.3 0-.5.116-.7.349-.1.232-.2.465-.3.93h1.7c0-.349 0-.698-.2-.93a.545.545 0 00-.5-.35zM11.9 2.41h.9l.1.698c.2-.232.3-.465.6-.581.2-.233.5-.233.8-.233.6 0 1 .233 1.3.582.3.465.4 1.163.4 2.093 0 .466 0 .815-.1 1.28-.1.465-.2.698-.4.93-.2.233-.4.466-.7.582-.3.117-.6.233-.9.233h-.5c-.1 0-.2-.116-.4-.116v2.21h-1.2V2.41h.1zm2 1.047c-.2 0-.4.116-.5.233-.1.116-.2.349-.3.581v2.21c.1.117.2.117.3.233.1.117.2.117.4.117.3 0 .6-.117.8-.466.2-.232.3-.698.3-1.396 0-.465-.1-.814-.2-1.047a.874.874 0 00-.8-.465zM16.9 2.41c.2 0 .5 0 .8-.116.3-.116.6 0 1 0 .7 0 1.2.116 1.4.349.2.233.4.582.4 1.047 0 .232-.1.465-.2.698-.1.232-.3.465-.6.581.3.117.6.233.7.466.1.232.2.465.2.814 0 .582-.2.93-.5 1.163-.4.233-.9.35-1.7.35h-.8c-.3 0-.5 0-.8-.117V2.41h.1zm1.8 2.21c.2 0 .4 0 .5-.116.1-.116.2-.233.2-.465 0-.233-.1-.35-.2-.466-.1-.116-.3-.116-.6-.116h-.5V4.62h.6zM18 6.714h.5c.3 0 .6 0 .7-.116.1-.116.2-.233.2-.465 0-.233-.1-.35-.2-.466-.1-.116-.3-.232-.6-.232H18v1.28zM21.5 2.76c.2-.117.5-.233.9-.35.3 0 .7-.116 1-.116.3 0 .6 0 .8.116.2.117.4.233.5.35.2.232.3.465.3.697.1.233.1.465.1.814V7.063c0 .233.1.582.1.815h-1l-.2-.815c-.1.233-.3.466-.5.582-.2.116-.5.233-.8.233-.2 0-.4 0-.6-.117-.2-.116-.3-.232-.4-.349-.1-.116-.2-.349-.3-.465-.1-.233-.1-.349-.1-.582 0-.349.1-.581.2-.814.1-.233.3-.465.5-.582.2-.116.5-.232.8-.232.3 0 .7-.117 1.1 0 0-.35 0-.698-.1-.815-.1-.116-.3-.465-.6-.465-.2 0-.5 0-.8.116-.3 0-.5.117-.7.233l-.2-1.047zM23 6.713c.2 0 .4-.116.6-.232l.3-.35v-.697h-.5c-.2 0-.3 0-.5.116-.1 0-.2.116-.3.233-.1.116-.1.232-.1.349 0 .232.1.349.2.465.1.116.1.116.3.116zM28.5 5.784L28 5.9l-.9 1.861h-1.4l.9-1.628.4-.466c-.3 0-.6-.232-.7-.465-.2-.233-.3-.582-.3-1.047 0-.698.2-1.163.6-1.396.4-.232.9-.465 1.6-.465h.8c.2 0 .5.116.7.116v5.351h-1.2V5.784zm0-.698V3.573c-.1 0-.1-.116-.2-.116h-.2c-.3 0-.5.116-.6.233-.2.116-.2.349-.2.581 0 .233.1.466.3.582.2.116.4.233.7.233h.2zM35 3.573l.2 1.047h.1l.1-1.047 1-3.257h1.3L36 5.435c-.1.465-.3.814-.4 1.047-.1.349-.3.581-.4.698-.1.116-.3.349-.5.465-.2.116-.4.116-.6.116h-.5c-.1 0-.3-.116-.4-.232l.3-1.164c.1.117.2.117.3.117h.3c.3 0 .5-.233.6-.815L32.3.2h1.5L35 3.573zM39.2 5.551h-.3v2.21h-1.2v-5.35h1.2v2.326l.3-.117 1.1-2.093h1.3L40.5 4.62l-.5.466.5.465 1.2 2.56h-1.4l-1.1-2.56zM42.2 2.41h.9l.1.698c.2-.232.3-.465.6-.581.2-.233.5-.233.8-.233.6 0 1 .233 1.3.582.3.465.4 1.163.4 2.093 0 .466 0 .815-.1 1.28-.1.465-.2.698-.4.93-.2.233-.4.466-.7.582-.3.117-.6.233-.9.233h-.5c-.1 0-.2-.116-.4-.116v2.21h-1.2V2.41h.1zm2 1.047c-.2 0-.4.116-.5.233-.1.116-.2.349-.3.581v2.21c.1.117.2.117.3.233.1.117.2.117.4.117.3 0 .6-.117.8-.466.2-.232.3-.698.3-1.396 0-.465-.1-.814-.2-1.047a.874.874 0 00-.8-.465zM47.1 2.76c.2-.117.5-.233.9-.35.4 0 .7-.116 1.1-.116.3 0 .6 0 .8.116.2.117.4.233.5.35.1.116.2.348.3.58.1.233.1.466.1.815V6.946c0 .234.1.583.1.815h-1l-.2-.698c-.1.233-.3.466-.5.582-.2.116-.5.233-.8.233-.2 0-.4 0-.6-.117-.2-.116-.3-.232-.4-.349-.3-.116-.4-.232-.4-.465-.1-.233-.1-.349-.1-.582 0-.349.1-.581.2-.814.1-.233.3-.465.5-.582.2-.116.5-.232.8-.232.3 0 .7-.117 1.1 0 0-.35 0-.698-.1-.815-.1-.116-.2-.465-.5-.465-.2 0-.5 0-.8.116-.3 0-.5.117-.7.233l-.3-1.047zm1.6 3.954c.2 0 .4-.116.6-.232l.3-.35v-.697h-.5c-.2 0-.3 0-.5.116-.1 0-.2.116-.3.233-.1.116-.1.232-.1.349 0 .232.1.349.2.465.1.116.1.116.3.116zM54.5 5.318v-.814l-.4.814-1.6 2.443h-.8v-5.35H53v2.558l-.1.698.4-.814L55 2.41h.8v5.351h-1.2V5.318h-.1zM59.5 5.667H58v2.094h-1.2v-5.35H58v1.977h1.5V2.41h1.2v5.351h-1.2V5.667zM65 7.412c-.2.117-.4.233-.7.35-.3.116-.5.116-.8.116-.4 0-.7-.117-.9-.233-.3-.116-.5-.35-.6-.582-.2-.232-.3-.581-.3-.93 0-.35-.1-.698-.1-1.164 0-.93.2-1.628.5-2.093.3-.35.8-.582 1.5-.582.3 0 .6 0 .8.116.2.117.4.117.6.233l-.3 1.163c-.1-.116-.3-.116-.4-.233-.2 0-.3-.116-.5-.116-.3 0-.6.116-.8.35-.2.232-.3.697-.3 1.162 0 .233 0 .466.1.582 0 .233.1.349.2.465l.3.35c.1.116.3.116.5.116s.4 0 .5-.117c.1-.116.3-.116.4-.232l.3 1.28zM67.3 5.551H67v2.21h-1.2v-5.35H67v2.326l.3-.117 1.1-2.093h1.3L68.6 4.62l-.6.233.5.465 1.2 2.56h-1.4l-1-2.327zM70.2 2.76c.2-.117.5-.233.9-.35.3 0 .7-.116 1.1-.116.3 0 .6 0 .8.116.2.117.4.233.5.35.1.116.2.348.3.58.1.233.1.466.1.815V6.946c0 .234.1.583.1.815h-1l-.2-.698c-.1.233-.3.466-.5.582-.2.116-.5.233-.8.233-.2 0-.4 0-.6-.117-.2-.116-.3-.232-.4-.349-.1-.116-.2-.349-.3-.465-.1-.233-.1-.349-.1-.582 0-.349.1-.581.2-.814.1-.233.3-.465.5-.582.2-.116.5-.232.8-.232.3 0 .7-.117 1.1 0 0-.35 0-.698-.1-.815-.1-.116-.3-.465-.7-.465-.2 0-.5 0-.8.116-.3 0-.5.117-.7.233l-.2-1.047zm1.6 3.954c.2 0 .4-.116.6-.232l.3-.35v-.697h-.5c-.2 0-.3 0-.5.116-.1 0-.2.116-.3.233-.1.116-.1.232-.1.349 0 .232.1.349.2.465.1.116.1.116.3.116zM77.3 5.784l-.6.116-.9 1.861h-1.4l.9-1.628.5-.35c-.3 0-.6-.232-.7-.465-.2-.232-.3-.581-.3-1.047 0-.698.2-1.163.6-1.395.4-.233.8-.582 1.6-.582h.8c.2 0 .5.116.7.116v5.351h-1.2V5.784zm0-.698V3.573c-.1 0-.1-.116-.2-.116h-.2c-.3 0-.5.116-.6.233-.2.116-.2.349-.2.581 0 .233.1.466.3.582.2.116.4.233.7.233h.2zM4.5 19.045h-2L2 20.673H.7l2.3-7.56h1l2.3 7.56H5l-.5-1.628zm-1.7-1.163h1.4l-.5-1.629-.2-1.163-.2 1.163-.5 1.629zM10 20.325c-.2.116-.4.232-.7.349-.3.116-.5.116-.8.116-.4 0-.7-.116-.9-.233-.3-.116-.5-.349-.6-.581-.2-.233-.3-.582-.3-.931 0-.35-.1-.698-.1-1.163 0-.931.2-1.629.5-2.094.4-.466.9-.698 1.5-.698.3 0 .6 0 .8.116.2.116.4.116.6.233l-.3 1.163c-.1-.116-.3-.116-.4-.233-.1 0-.3-.116-.5-.116-.3 0-.6.116-.8.349-.2.233-.3.698-.3 1.163 0 .233 0 .466.1.582 0 .233.1.349.2.465l.3.35c.1.116.3.116.5.116s.4 0 .5-.117c.1-.116.3-.116.4-.232l.3 1.396zM13.8 20.325c-.2.116-.4.232-.7.349-.3.116-.5.116-.8.116-.4 0-.7-.116-.9-.233-.3-.116-.5-.349-.6-.581-.2-.233-.3-.582-.3-.931 0-.35-.1-.698-.1-1.163 0-.931.2-1.629.5-2.094.4-.466.9-.698 1.5-.698.3 0 .6 0 .8.116.2.116.4.116.6.233l-.3 1.163c-.1-.116-.3-.116-.4-.233-.1 0-.3-.116-.5-.116-.3 0-.6.116-.8.349-.2.233-.3.698-.3 1.163 0 .233 0 .466.1.582 0 .233.1.349.2.465l.3.35c.1.116.3.116.5.116s.4 0 .5-.117c.1-.116.3-.116.4-.232l.3 1.396zM14.2 17.998c0-.93.2-1.629.6-2.094.4-.465.9-.698 1.6-.698.4 0 .7.116 1 .233.3.116.5.349.7.581.2.233.3.582.4.931.1.349.1.698.1 1.163 0 .93-.2 1.629-.6 2.094-.4.466-.9.698-1.6.698-.4 0-.7-.116-1-.232-.3-.117-.5-.35-.7-.582-.2-.233-.3-.582-.4-.93-.1-.35-.1-.699-.1-1.164zm1.2 0c0 .233 0 .465.1.698 0 .233.1.349.2.581l.3.35c.1.116.3.116.4.116.3 0 .5-.116.7-.35.2-.232.2-.697.2-1.279 0-.465-.1-.93-.2-1.163-.1-.349-.4-.465-.7-.465-.3 0-.5.116-.7.349-.2.116-.3.581-.3 1.163zM23.8 21.953H23l-.1-1.28h-3.5v-5.35h1.2v4.187H22v-4.188h1.2v4.188h.7v2.443h-.1zM27.3 18.23v-.814l-.4.815-1.6 2.442h-.8v-5.35h1.2v2.559l-.1.698.4-.815 1.7-2.559h.8v5.351h-1.2v-2.326zM29.5 15.671c.2-.116.5-.232.9-.349.3-.116.7-.116 1.1-.116.3 0 .6 0 .8.116.2.117.4.233.5.35.1.116.2.348.3.581.1.233.1.465.1.814V19.86c0 .233.1.582.1.814h-1l-.3-.697c-.1.232-.3.465-.5.581-.2.117-.5.233-.8.233-.2 0-.4 0-.6-.116-.2-.117-.3-.233-.4-.35-.1-.116-.2-.349-.3-.465-.1-.233-.1-.349-.1-.582 0-.348.1-.581.2-.814.1-.232.3-.465.5-.581.2-.117.5-.233.8-.233.3 0 .7-.116 1.1 0 0-.349 0-.698-.1-.814-.1-.117-.3-.233-.6-.233-.2 0-.5 0-.8.116-.3 0-.5.117-.7.233l-.2-1.28zm1.5 3.956c.2 0 .4-.117.6-.233l.3-.35v-.697h-.5c-.2 0-.3 0-.5.116-.1 0-.2.117-.3.233-.1.116-.1.233-.1.349 0 .232.1.349.2.465.1.116.1.116.3.116zM38.6 21.953h-.9l-.1-1.28h-3.5v-5.35h1.2v4.187h1.4v-4.188h1.2v4.188h.7v2.443zM42 18.23v-.814l-.4.815-1.6 2.442h-.8v-5.35h1.2v3.257l.4-.815 1.7-2.559h.8v5.351H42v-2.326zM46.7 18.696l-.6.116-.9 1.861h-1.4l.9-1.628.5-.35c-.3 0-.6-.232-.7-.464-.2-.233-.3-.582-.3-1.047 0-.698.2-1.164.6-1.396.4-.233.9-.466 1.7-.466h.8c.2 0 .5.117.7.117v5.35h-1.2v-2.093h-.1zm0-.814v-1.513c-.1 0-.1-.116-.2-.116h-.2c-.3 0-.5.116-.6.233-.2.116-.2.349-.2.581 0 .233.1.466.3.582.2.116.4.233.7.233h.2zM51.3 20.674v-7.562h1.3v6.165h1.5v-6.165h1.3v6.165h1.5v-6.165h1.3v7.562h-6.9zM62.9 20.208c-.2.117-.4.35-.8.466-.3.116-.7.232-1 .232-.7 0-1.3-.232-1.6-.814-.3-.465-.5-1.163-.5-2.094 0-.93.2-1.629.6-2.094.4-.465.9-.698 1.6-.698.2 0 .5 0 .7.116l.6.35c.2.116.3.348.4.697.1.233.2.582.2 1.047v.466c0 .116 0 .349-.1.581h-2.8c0 .466.1.814.3 1.047.2.233.5.35.9.35.3 0 .5 0 .7-.117.2-.116.4-.233.5-.233l.3.698zm-1.7-3.955c-.3 0-.5.116-.7.349-.1.233-.2.465-.3.93H62c0-.348 0-.697-.2-.93-.1-.233-.3-.349-.6-.349zM66 20.79c-.1 0-.2.116-.3.116h-.3c-.6 0-1-.232-1.3-.698-.3-.465-.5-1.163-.5-2.094 0-.93.2-1.628.5-2.094.3-.465.8-.697 1.4-.697h.4v-2.094h1.2v2.094h.5c.6 0 1.1.232 1.4.581.3.465.5 1.047.5 2.094 0 .465 0 .814-.1 1.163-.1.35-.2.698-.4.93-.2.233-.4.466-.6.582-.2.117-.5.233-.8.233h-.2c-.1 0-.2 0-.3-.116v2.094H66V20.79zm-.3-1.047h.4v-3.374h-.4c-.3 0-.5.117-.7.35-.2.232-.2.697-.2 1.279s.1.93.2 1.28c.2.349.4.465.7.465zm1.8-3.49h-.4v3.49h.4c.3 0 .5-.116.6-.465.1-.233.2-.698.2-1.396 0-.582-.1-.931-.2-1.164-.1-.232-.3-.465-.6-.465zM70.3 16.951h2.3v1.28h-2.3v-1.28zM77.2 14.508H75v6.166h-1.3v-7.562h4.8v7.562h-1.3v-6.166zM79.3 17.998c0-.93.2-1.629.6-2.094.4-.465.9-.698 1.6-.698.4 0 .7.116 1 .233.3.116.5.349.7.581.2.233.3.582.4.931.1.349.1.698.1 1.163 0 .93-.2 1.629-.6 2.094-.4.466-.9.698-1.6.698-.4 0-.7-.116-1-.232-.3-.117-.5-.35-.7-.582-.2-.233-.3-.582-.4-.93-.1-.35-.1-.699-.1-1.164zm1.3 0c0 .233 0 .465.1.698 0 .233.1.349.2.581l.3.35c.1.116.3.116.4.116.3 0 .5-.116.7-.35.2-.232.2-.697.2-1.279 0-.465-.1-.93-.2-1.163-.1-.349-.4-.465-.7-.465-.3 0-.5.116-.7.349-.2.116-.3.581-.3 1.163zM84.5 15.322c.2 0 .5 0 .8-.116.3-.116.6 0 1 0 .7 0 1.2.116 1.4.35.2.232.4.58.4 1.046 0 .233-.1.465-.2.698-.1.233-.3.465-.6.465.3.117.6.233.7.466.1.232.2.465.2.814 0 .581-.2.93-.5 1.163-.4.233-.9.35-1.7.35h-.8c-.3 0-.5 0-.8-.117v-5.119h.1zm1.8 2.21c.2 0 .4 0 .5-.116.1-.116.2-.232.2-.465s-.1-.349-.2-.465c-.1-.117-.3-.117-.6-.117h-.5v1.164h.6zm-.6 2.095h.5c.3 0 .6 0 .7-.117.1-.116.2-.233.2-.465 0-.233-.1-.35-.2-.465-.1-.117-.3-.233-.6-.233h-.6v1.28zM89.2 15.671c.2-.116.5-.232.9-.349.3-.116.7-.116 1.1-.116.3 0 .6 0 .8.116.2.117.4.233.5.35.1.116.2.348.3.581.1.233.1.465.1.814V19.86c0 .233.1.582.1.814h-1l-.2-.697c-.1.232-.3.465-.5.581-.2.117-.5.233-.8.233-.2 0-.4 0-.6-.116-.2-.117-.3-.233-.4-.35-.1-.116-.2-.349-.3-.465-.1-.233-.1-.349-.1-.582 0-.348.1-.581.2-.814.1-.232.3-.465.5-.581.2-.117.5-.233.8-.233.3 0 .7-.116 1.1 0 0-.349 0-.698-.1-.814-.1-.117-.3-.233-.6-.233-.2 0-.5 0-.8.116-.3 0-.5.117-.7.233l-.3-1.28zm1.5 3.956c.2 0 .4-.117.6-.233l.3-.35v-.697h-.5c-.2 0-.3 0-.5.116-.1 0-.2.117-.3.233-.1.116-.1.233-.1.349 0 .232.1.349.2.465.1.116.1.116.3.116zM93.8 15.322h.9l.1.698c.2-.232.3-.465.6-.581.2-.117.5-.233.8-.233.6 0 1 .233 1.3.582.3.465.4 1.163.4 2.094 0 .465 0 .814-.1 1.28-.1.465-.2.697-.4.93-.2.233-.4.465-.7.582-.3.116-.6.232-.9.232h-.5c-.1 0-.2-.116-.4-.116V23h-1.2v-7.678h.1zm2 1.047c-.2 0-.4.117-.5.233-.1.116-.2.349-.3.582v2.21c.1.116.2.116.3.233.1.116.2.116.4.116.3 0 .6-.116.8-.465.2-.233.3-.698.3-1.396 0-.466-.1-.815-.2-1.047-.3-.35-.5-.466-.8-.466zM98.5 17.998c0-.93.2-1.629.6-2.094.4-.465.9-.698 1.6-.698.4 0 .7.116 1 .233.3.116.5.349.7.581.2.233.3.582.4.931.1.349.1.698.1 1.163 0 .93-.2 1.629-.6 2.094-.4.466-.9.698-1.6.698-.4 0-.7-.116-1-.232-.3-.117-.5-.35-.7-.582-.2-.233-.3-.582-.4-.93-.1-.35-.1-.699-.1-1.164zm1.3 0c0 .233 0 .465.1.698 0 .233.1.349.2.581l.3.35c.1.116.3.116.4.116.3 0 .5-.116.7-.35.2-.232.2-.697.2-1.279 0-.465-.1-.93-.2-1.163-.1-.349-.4-.465-.7-.465-.3 0-.5.116-.7.349-.3.116-.3.581-.3 1.163zM103.7 15.322c.2 0 .5 0 .8-.116.3-.116.6 0 1 0 .7 0 1.2.116 1.4.35.2.232.4.58.4 1.046 0 .233-.1.465-.2.698-.1.233-.3.465-.6.465.3.117.6.233.7.466.1.232.2.465.2.814 0 .581-.2.93-.5 1.163-.4.233-.9.35-1.7.35h-.8c-.3 0-.5 0-.8-.117v-5.119h.1zm1.8 2.21c.2 0 .4 0 .5-.116.1-.116.2-.232.2-.465s-.1-.349-.2-.465c-.1-.117-.3-.117-.6-.117h-.5v1.164h.6zm-.6 2.095h.5c.3 0 .6 0 .7-.117.1-.116.2-.233.2-.465 0-.233-.1-.35-.2-.465-.1-.117-.3-.233-.6-.233h-.6v1.28z" fill="#fff"/></svg>