<svg width="22" height="22" viewBox="0 0 22 22" fill="none" xmlns="http://www.w3.org/2000/svg">
<g clip-path="url(#clip0)">
<path d="M15.6288 8.19602L9.76209 14.1543L7.19538 12.046C6.92038 11.771 6.37038 11.771 6.09538 12.1377C5.91205 12.5043 6.00371 12.9627 6.27871 13.2377L9.30371 15.8043C9.48705 15.896 9.67043 15.9877 9.85376 15.9877C10.0371 15.9877 10.2204 15.896 10.4038 15.8043L16.7288 9.38769C17.0038 9.11269 17.0038 8.65436 16.7288 8.28769C16.4538 7.92102 15.9954 7.92102 15.6288 8.19602Z" fill="#364274"/>
<path d="M10.9999 21.0833C16.5688 21.0833 21.0832 16.5688 21.0832 11C21.0832 5.43112 16.5688 0.916656 10.9999 0.916656C5.43108 0.916656 0.916611 5.43112 0.916611 11C0.916611 16.5688 5.43108 21.0833 10.9999 21.0833Z" stroke="#364274" stroke-width="2" stroke-miterlimit="10"/>
</g>
<defs>
<clipPath id="clip0">
<rect width="22" height="22" fill="white"/>
</clipPath>
</defs>
</svg>
