<svg width="80" height="80" fill="none" xmlns="http://www.w3.org/2000/svg"><path fill="#E5E5E5" d="M0 0h80v80H0z"/><circle cx="40" cy="40" r="40" fill="#364274"/><path d="M19.503 61.083h9.742a.504.504 0 00.503-.502v-4.272a23.01 23.01 0 0011.217 2.932h14.472c3.376 0 5.318-.808 7.694-3.208a3.209 3.209 0 00.276-4.13l-.09-.126a3.16 3.16 0 00-2.174-1.27 3.318 3.318 0 00-2.516.783c-1.872 1.601-3.02 2.008-5.616 2.008h-.146v-1.27c-.002-.97-.39-1.9-1.079-2.587a3.683 3.683 0 00-2.594-1.073H42.73c-.503-.843-2.22-3.287-5.238-3.287h-7.745V43.6a.501.501 0 00-.503-.502h-9.742A.504.504 0 0019 43.6v16.98a.501.501 0 00.503.502zm10.245-14.998h7.745c2.938 0 4.483 2.981 4.498 3.011a.502.502 0 00.448.276h6.723a2.676 2.676 0 011.882.78c.5.497.782 1.171.785 1.876v1.275h-9.395a.503.503 0 00-.356.857.504.504 0 00.356.147h10.567c2.818 0 4.222-.502 6.27-2.254a2.315 2.315 0 011.761-.547 2.142 2.142 0 011.51.868l.085.12a2.205 2.205 0 01-.176 2.837c-2.184 2.198-3.88 2.906-6.98 2.906H40.966a22.016 22.016 0 01-11.217-3.067v-9.086zm-9.742-1.983h8.736v15.977h-8.736V44.102zm41.167-5.21a.504.504 0 00.503-.502v-3.689a.501.501 0 00-.503-.502h-2.4a8.376 8.376 0 00-.634-1.506l1.7-1.696a.502.502 0 000-.708l-2.606-2.6a.504.504 0 00-.71 0l-1.7 1.666c-.48-.26-.987-.47-1.51-.627v-2.385a.501.501 0 00-.503-.501h-3.699a.503.503 0 00-.503.502v2.399a8.06 8.06 0 00-1.51.627l-1.7-1.696a.504.504 0 00-.71 0l-2.606 2.6a.5.5 0 000 .708l1.7 1.696a8.38 8.38 0 00-.633 1.506h-2.416a.504.504 0 00-.503.502v3.705a.501.501 0 00.503.502h2.4c.161.521.374 1.026.634 1.505l-1.7 1.697a.501.501 0 000 .708l2.606 2.615a.504.504 0 00.71 0l1.7-1.697c.482.26.988.472 1.51.633v2.4a.501.501 0 00.503.501h3.684a.504.504 0 00.503-.502V44.34a8.42 8.42 0 001.51-.633l1.73 1.712a.504.504 0 00.71 0l2.607-2.6a.501.501 0 000-.708l-1.716-1.712c.26-.48.473-.984.634-1.506h2.415zm-3.276-.622a7.175 7.175 0 01-.815 1.968.5.5 0 00.076.617l1.615 1.611-1.892 1.888-1.62-1.611a.504.504 0 00-.614-.076 7.221 7.221 0 01-1.973.818.503.503 0 00-.382.502v2.28h-2.677v-2.31a.501.501 0 00-.383-.502 7.22 7.22 0 01-1.972-.818.505.505 0 00-.614.075L45.04 44.34l-1.892-1.888 1.615-1.61a.502.502 0 00.075-.618 7.174 7.174 0 01-.805-1.968.502.502 0 00-.503-.366h-2.295v-2.686h2.295a.504.504 0 00.503-.381 7.169 7.169 0 01.79-1.953.5.5 0 00-.075-.612l-1.616-1.612 1.908-1.902 1.605 1.616a.504.504 0 00.614.07 7.211 7.211 0 011.972-.813.503.503 0 00.383-.502v-2.268h2.677v2.278a.501.501 0 00.382.502 7.21 7.21 0 011.973.813.504.504 0 00.614-.08l1.62-1.611 1.892 1.887-1.615 1.611a.501.501 0 00-.076.623c.368.612.643 1.275.815 1.968a.502.502 0 00.504.381h2.284v2.67h-2.3a.504.504 0 00-.488.367v.015z" fill="#fff"/><path d="M50.953 31.111a5.454 5.454 0 00-3.027.913 5.42 5.42 0 00-.828 8.358 5.449 5.449 0 005.936 1.177 5.442 5.442 0 002.443-2.002 5.421 5.421 0 00-.679-6.855 5.451 5.451 0 00-3.845-1.59zm0 9.854a4.447 4.447 0 01-2.467-.744 4.417 4.417 0 01-.678-6.812 4.442 4.442 0 014.837-.962 4.42 4.42 0 011.441 7.218 4.449 4.449 0 01-3.133 1.3zm-20.505-3.138h3.3a.555.555 0 00.554-.552v-2.138a7.49 7.49 0 001.364-.562l1.51 1.505a.594.594 0 00.774 0l2.34-2.329a.552.552 0 000-.778l-1.51-1.505c.232-.435.42-.89.564-1.36h2.144a.549.549 0 00.533-.548v-3.298a.547.547 0 00-.548-.547h-2.144a7.678 7.678 0 00-.563-1.38l1.51-1.506a.551.551 0 000-.778l-2.34-2.33a.595.595 0 00-.776 0l-1.51 1.507a7.31 7.31 0 00-1.358-.563v-2.118A.546.546 0 0033.74 18h-3.291a.55.55 0 00-.554.547v2.139c-.472.142-.928.33-1.363.562l-1.51-1.506a.594.594 0 00-.775 0l-2.34 2.324a.538.538 0 00-.166.391c.012.14.07.27.166.372l1.51 1.506c-.231.434-.42.89-.564 1.36h-2.159a.549.549 0 00-.548.547v3.298a.546.546 0 00.549.547h2.143c.148.478.341.94.579 1.38l-1.51 1.506a.536.536 0 00-.166.387.62.62 0 00.161.391l2.34 2.33a.594.594 0 00.775 0l1.51-1.506c.432.232.887.42 1.358.562v2.138a.55.55 0 00.564.552zm-1.711-4.291a.56.56 0 00-.67.085l-1.439 1.435-1.715-1.686 1.439-1.436a.546.546 0 00.07-.672 6.448 6.448 0 01-.724-1.742.547.547 0 00-.534-.417h-2.013V26.72h2.013a.55.55 0 00.534-.417c.155-.614.4-1.202.724-1.746a.546.546 0 00-.08-.668l-1.43-1.43 1.691-1.692 1.44 1.44a.564.564 0 00.669.08 6.323 6.323 0 011.736-.722.553.553 0 00.418-.532v-2.008h2.395v2.008a.551.551 0 00.412.532 6.295 6.295 0 011.751.723.56.56 0 00.67-.086l1.439-1.435 1.69 1.691-1.439 1.436a.547.547 0 00-.08.668c.326.542.57 1.128.724 1.741a.547.547 0 00.534.417h2.013v2.384h-1.973a.55.55 0 00-.533.417 6.546 6.546 0 01-.725 1.747.546.546 0 00.08.667l1.42 1.436-1.691 1.692-1.44-1.441a.565.565 0 00-.668-.08 6.324 6.324 0 01-1.746.722.554.554 0 00-.418.532v2.033h-2.395V34.79a.551.551 0 00-.413-.532 6.297 6.297 0 01-1.751-.722h.015z" fill="#fff"/><path d="M36.42 27.914a4.32 4.32 0 00-2.677-3.997 4.348 4.348 0 00-4.727.938 4.323 4.323 0 00-.94 4.715 4.345 4.345 0 007.073 1.402 4.327 4.327 0 001.272-3.058zm-7.668 0a3.318 3.318 0 012.056-3.07 3.338 3.338 0 013.63.72 3.32 3.32 0 01.723 3.622 3.324 3.324 0 01-3.078 2.051 3.34 3.34 0 01-2.354-.974 3.324 3.324 0 01-.977-2.349zM25.26 46.03a2.072 2.072 0 00-1.91 1.273 2.058 2.058 0 00.447 2.248 2.07 2.07 0 003.53-1.459 2.06 2.06 0 00-.605-1.459 2.071 2.071 0 00-1.462-.604zm0 3.121a1.064 1.064 0 01-.981-.653 1.056 1.056 0 01.774-1.444 1.064 1.064 0 011.09.45 1.057 1.057 0 01-.883 1.648z" fill="#fff"/></svg>