<svg width="80" height="80" fill="none" xmlns="http://www.w3.org/2000/svg"><path fill="#E5E5E5" d="M0 0h80v80H0z"/><circle cx="40" cy="40" r="40" fill="#364274"/><path d="M46.207 21.807h-4.138V19H27.586v2.807h-4.138a3.42 3.42 0 00-2.438 1.028 3.54 3.54 0 00-1.01 2.48v30.176c0 .93.363 1.823 1.01 2.481A3.418 3.418 0 0023.448 59h22.759a3.42 3.42 0 002.438-1.028 3.54 3.54 0 001.01-2.48V25.315a3.54 3.54 0 00-1.01-2.481 3.419 3.419 0 00-2.438-1.028zm-17.242-1.403H40.69v4.21H28.966v-4.21zm19.31 35.087c0 .559-.217 1.094-.605 1.489a2.05 2.05 0 01-1.463.617H23.448a2.051 2.051 0 01-1.463-.617 2.124 2.124 0 01-.606-1.489V25.316c0-.559.218-1.094.606-1.489a2.051 2.051 0 011.463-.617h4.138v2.807H42.07v-2.806h4.138a2.05 2.05 0 011.463.616c.388.395.606.93.606 1.489V55.49z" fill="#fff"/><path d="M24.138 35.14h6.207v-6.315h-6.207v6.316zm1.38-4.912h3.447v3.509h-3.448v-3.509zm-1.38 14.035h6.207v-6.316h-6.207v6.316zm1.38-4.912h3.447v3.509h-3.448v-3.51zm-1.38 14.737h6.207v-6.316h-6.207v6.316zm1.38-4.913h3.447v3.51h-3.448v-3.51zm19.31-19.649H33.793a.684.684 0 00-.487.206.708.708 0 000 .992.68.68 0 00.487.206h11.035a.684.684 0 00.487-.206.708.708 0 000-.992.684.684 0 00-.487-.206zm0 3.509H33.793a.684.684 0 00-.487.206.708.708 0 000 .992.68.68 0 00.487.206h11.035a.684.684 0 00.487-.206.708.708 0 000-.992.684.684 0 00-.487-.206zm0 5.615H33.793a.684.684 0 00-.487.205.708.708 0 000 .992.68.68 0 00.487.206h11.035a.684.684 0 00.487-.206.708.708 0 000-.992.684.684 0 00-.487-.206zm0 3.508H33.793a.684.684 0 00-.487.205.708.708 0 000 .993.683.683 0 00.487.205h11.035a.684.684 0 00.487-.205.708.708 0 000-.993.684.684 0 00-.487-.205zm0 6.316H33.793a.684.684 0 00-.487.205.708.708 0 000 .993.683.683 0 00.487.205h11.035a.684.684 0 00.487-.205.708.708 0 000-.993.684.684 0 00-.487-.205zm0 3.509H33.793a.684.684 0 00-.487.205.708.708 0 000 .992.68.68 0 00.487.206h11.035a.684.684 0 00.487-.206.708.708 0 000-.992.684.684 0 00-.487-.206zm11.724-30.176c-.915 0-1.792.37-2.438 1.028a3.54 3.54 0 00-1.01 2.48v25.412l3.448 7.894L60 50.727V25.316a3.54 3.54 0 00-1.01-2.481 3.419 3.419 0 00-2.438-1.028zm0 33.362l-2.007-4.59h4.014l-2.007 4.59zm2.069-5.993h-4.138V28.123h4.138v21.053zm0-22.457h-4.138v-1.403c0-.558.218-1.094.606-1.489a2.05 2.05 0 011.463-.616 2.05 2.05 0 011.463.616c.388.395.606.93.606 1.489v1.403z" fill="#fff"/></svg>